<?xml version="1.0" standalone="no"?>
<!DOCTYPE svg PUBLIC "-//W3C//DTD SVG 1.1//EN" "http://www.w3.org/Graphics/SVG/1.1/DTD/svg11.dtd" >
<!--
2013-9-30: Created.
-->
<svg>
<metadata>
Created by iconfont
</metadata>
<defs>

<font id="iconfont" horiz-adv-x="1024" >
  <font-face
    font-family="iconfont"
    font-weight="500"
    font-stretch="normal"
    units-per-em="1024"
    ascent="896"
    descent="-128"
  />
    <missing-glyph />
    
    <glyph glyph-name="ban" unicode="&#58954;" d="M813.714 289.719q0 92.014-49.701 168.558l-430.848-430.299q78.299-50.871 169.728-50.871 63.415 0 120.869 24.869t99.145 66.56 66.304 99.73 24.576 121.417zM242.87 118.857l431.433 430.848q-77.129 52.005-171.447 52.005-84.553 0-156.014-41.728t-113.152-113.701-41.728-156.562q0-92.562 50.871-170.862zM941.714 289.719q0-89.71-34.853-171.447t-93.44-140.581-139.995-93.696-170.569-34.853-170.569 34.853-139.995 93.696-93.44 140.581-34.853 171.447 34.853 171.154 93.44 140.288 139.995 93.696 170.569 34.853 170.569-34.853 139.995-93.696 93.44-140.288 34.853-171.154z"  horiz-adv-x="1024" />

    
    <glyph glyph-name="search" unicode="&#58883;" d="M1016.502713-172.362972l-324.291529 324.291529C754.503751 221.880047 792.287767 314.04241 792.287767 415.012534c0 218.598404-177.112575 395.774803-395.647154 395.774803C178.106033 810.723513 0.865809 633.610938 0.865809 415.012534c0-218.470755 177.176399-395.710979 395.774803-395.710979 100.714827 0 192.621893 37.656367 262.445733 99.629813l324.355354-324.355354c8.935409-8.935409 23.487361-8.743936 32.678068 0.44677S1025.501947-181.298381 1016.502713-172.362972L1016.502713-172.362972zM47.649059 415.012534c0 192.430419 156.561134 348.991553 348.991553 348.991553 192.430419 0 348.927729-156.561134 348.927729-348.991553s-156.49731-348.927729-348.927729-348.927729C204.210193 66.020981 47.649059 222.582115 47.649059 415.012534L47.649059 415.012534zM47.649059 415.012534"  horiz-adv-x="1024" />

    
    <glyph glyph-name="anime" unicode="&#59013;" d="M336 96c22.048 0 40-17.936 40-40S358.048 16 336 16s-40 17.936-40 40S313.952 96 336 96M336 144c-48.608 0-88-39.408-88-88S287.392-32 336-32s88 39.408 88 88S384.608 144 336 144L336 144zM672 96c22.064 0 40-17.936 40-40S694.064 16 672 16s-40 17.936-40 40S649.936 96 672 96M672 144c-48.592 0-88-39.408-88-88S623.408-32 672-32s88 39.408 88 88S720.592 144 672 144L672 144zM680 592l-352 0c-70.576 0-128-57.424-128-128l0-160c0-70.576 57.424-128 128-128l352 0c70.576 0 128 57.424 128 128L808 464C808 534.576 750.576 592 680 592zM344 368c-26.512 0-48 21.488-48 48s21.488 48 48 48 48-21.488 48-48S370.512 368 344 368zM664 368c-26.496 0-48 21.488-48 48s21.504 48 48 48 48-21.488 48-48S690.496 368 664 368zM760 704l-35.872 0 87.968 51.216c11.376 6.64 15.28 21.312 8.72 32.784-6.576 11.488-21.12 15.424-32.528 8.784L628.928 704l-235.36 0-174.56 100.784c-11.488 6.624-26.16 2.688-32.784-8.784-6.624-11.472-2.688-26.144 8.784-32.784L297.552 704 248 704c-88.368 0-160-71.648-160-160l0-320c0-88.368 71.632-160 160-160l512 0c88.368 0 160 71.632 160 160L920 544C920 632.352 848.368 704 760 704zM840 304c0-88.368-71.632-160-160-160l-352 0c-88.368 0-160 71.632-160 160L168 464c0 88.368 71.632 160 160 160l352 0c88.368 0 160-71.632 160-160L840 304z"  horiz-adv-x="1024" />

    
    <glyph glyph-name="smileo" unicode="&#60410;" d="M721.188571 281.746286q-21.138286-69.12-78.848-111.396571t-130.267429-42.276571-130.267429 42.276571-78.848 111.396571q-4.534857 14.262857 2.267429 27.721143t21.723429 17.993143q14.262857 4.534857 27.721143-2.267429t17.993143-21.723429q14.262857-45.714286 52.882286-74.020571t86.601143-28.306286 86.601143 28.306286 52.882286 74.020571q4.534857 14.848 18.285714 21.723429t28.013714 2.267429 21.138286-17.993143 2.267429-27.721143zM438.930286 530.285714q0-30.281143-21.430857-51.712t-51.712-21.430857-51.712 21.430857-21.430857 51.712 21.430857 51.712 51.712 21.430857 51.712-21.430857 21.430857-51.712zM731.501714 530.285714q0-30.281143-21.430857-51.712t-51.712-21.430857-51.712 21.430857-21.430857 51.712 21.430857 51.712 51.712 21.430857 51.712-21.430857 21.430857-51.712zM877.787429 384q0 74.313143-29.110857 141.970286t-77.970286 116.589714-116.589714 77.970286-141.970286 29.110857-141.970286-29.110857-116.589714-77.970286-77.970286-116.589714-29.110857-141.970286 29.110857-141.970286 77.970286-116.589714 116.589714-77.970286 141.970286-29.110857 141.970286 29.110857 116.589714 77.970286 77.970286 116.589714 29.110857 141.970286zM950.930286 384q0-119.442286-58.88-220.306286t-159.744-159.744-220.306286-58.88-220.306286 58.88-159.744 159.744-58.88 220.306286 58.88 220.306286 159.744 159.744 220.306286 58.88 220.306286-58.88 159.744-159.744 58.88-220.306286z"  horiz-adv-x="1024" />

    
    <glyph glyph-name="wangluolianjie" unicode="&#59565;" d="M426.8906 236.485431c3.666506 3.581572 4.13825 9.437953 0.905626 13.576203l-30.477129 39.009456c-3.457752 4.425799-9.882068 5.227048-14.32424 1.757017-4.432962-3.462868-5.230118-9.883091-1.76111-14.323217l22.907733-29.320793-35.294854-14.982226c-5.187139-2.201132-7.602142-8.202822-5.40408-13.380752 2.202155-5.188162 8.209986-7.602142 13.379729-5.408173l45.567825 19.342534C424.294472 233.562868 425.824315 234.882933 426.8906 236.485431zM636.405381 203.468456l-31.600719 15.413038 28.087709 21.166065c4.801353 3.618411 5.752004 10.455119 2.139733 15.247262-3.618411 4.803399-10.461259 5.750981-15.246239 2.145873l-42.180681-31.785937c-2.037403-1.534959-3.334955-3.660366-3.931542-5.953595-0.036839-0.135076-0.065492-0.26913-0.096191-0.404206-0.106424-0.485047-0.185218-0.969071-0.225127-1.463328-0.028653-0.309038-0.037862-0.61296-0.039909-0.920976 0.001023-0.323365 0.01228-0.642636 0.041956-0.964978 0.037862-0.458441 0.107447-0.907673 0.202615-1.356904 0.037862-0.170892 0.075725-0.339738 0.122797-0.509606 0.160659-0.60989 0.373507-1.198292 0.636496-1.772366 0.005117-0.011256 0.00921-0.021489 0.01535-0.032746 1.014096-2.194992 2.714831-4.087085 5.056156-5.229095l47.471175-23.153326c5.385661-2.626827 11.921517-0.38988 14.557554 5.015224C644.046409 194.303726 641.808438 200.833443 636.405381 203.468456zM248.547773 585.328467c-49.701982 3.699252-98.589412-14.569834-134.146233-50.126654-35.550681-35.550681-53.824883-84.431971-50.14405-134.128837 0.339738-4.591575 4.332678-8.090259 8.916067-7.80885 4.589528 0.274246 8.03807 4.233418 7.693216 8.818853-3.328815 44.89142 13.218046 89.094154 45.388746 121.264854 32.175817 32.17684 76.384691 48.717561 121.270994 45.382607 2.498914-0.191358 4.812609 0.74599 6.437619 2.372024 1.366114 1.366114 2.258437 3.218298 2.381234 5.309936C256.626775 580.996812 253.139348 584.989753 248.547773 585.328467zM248.38302 537.558487c-37.297464 4.084015-74.019831-8.906857-100.725052-35.612079-26.700105-26.700105-39.684838-63.416332-35.618219-100.719936 0.499373-4.574179 4.609994-7.930623 9.181103-7.496741 4.582365 0.433882 7.878434 4.523013 7.372921 9.080819-3.51301 32.29759 7.751544 64.116273 30.918173 87.282902 23.171746 23.172769 54.995545 34.44244 87.281879 30.918173 2.594081-0.286526 5.025457 0.650823 6.727215 2.352581 1.296529 1.295506 2.164293 3.03001 2.358721 5.015224C256.314667 532.948493 252.963339 537.065254 248.38302 537.558487zM238.259452 459.310356c-4.39817 4.101411-11.301394 3.847631-15.388479-0.535189l-10.712993-11.488659-10.712993 11.488659c-4.086062 4.381797-10.989285 4.6366-15.387455 0.535189-4.38896-4.093225-4.63967-10.990309-0.539282-15.387455l11.751648-12.602016-10.41828-11.172457c-4.100388-4.397147-3.849678-11.294231 0.539282-15.387455 4.39817-4.101411 11.301394-3.846608 15.388479 0.535189l9.379625 10.0591 9.379625-10.0591c4.086062-4.381797 10.989285-4.6366 15.388479-0.535189 4.38896 4.093225 4.63967 10.990309 0.539282 15.387455l-10.419304 11.172457 11.751648 12.602016C242.899122 448.319024 242.649436 455.217131 238.259452 459.310356zM955.912275 366.415642c-7.083326 1.432629-15.017018 4.166903-15.017018 4.166903-19.981077 6.77224-40.942481 27.782763-50.129724 50.096978-9.187243 22.312168-29.511127 49.816592-29.511127 49.816592-15.670911 17.376763-22.950711 21.054525-38.495756 21.284769-15.547091 0.229221-20.611433-13.932314-20.611433-13.932314l-47.432289-95.883791-18.618033-36.395932c-50.034557 53.451376-121.205503 86.903256-200.23237 86.903256-151.420665 0-274.17443-122.647341-274.17443-273.944186 0-46.888913 11.812023-92.089371 34.010605-132.252093 2.472308-4.472871 8.103562-6.094812 12.576433-3.622504 4.472871 2.472308 6.094812 8.103562 3.622504 12.576433-20.693298 37.437657-31.701003 79.56001-31.701003 123.298164 0 141.070946 114.462938 255.434623 255.665891 255.434623 141.200906 0 255.664867-114.363677 255.664867-255.434623 0-37.592177-8.127098-74.017784-23.610744-107.36324-3.64911-7.861038-7.698333-15.527648-12.128225-22.973224-2.613524-4.39203-1.171686-10.07138 3.220345-12.684904 4.393054-2.613524 10.072403-1.171686 12.685927 3.221368 4.751211 7.985882 9.095145 16.210193 13.010315 24.64326 16.610306 35.775808 25.330922 74.858942 25.330922 115.157763 0 61.320601-20.171412 117.928876-54.237275 163.579589l0.25378-0.290619 29.962405 60.213383c5.89015 8.460696 13.821797 10.290367 13.821797 10.290367 17.810644 3.212158 28.078499-8.930393 28.078499-8.930393 15.415085-11.982916 24.502044-33.996279 58.594513-43.180452 34.094516-9.181103 61.949934 10.033517 69.567425 16.677844C965.463816 365.067948 955.912275 366.415642 955.912275 366.415642zM476.79929 133.30342c-32.547277 3.477194-62.932308-18.85851-67.901483-50.237171-0.822738-5.192256 2.719948-10.06831 7.913227-10.891048 5.192256-0.822738 10.06831 2.719948 10.891048 7.912204 3.357468 21.196765 24.449855 36.703947 47.076178 34.285874 21.812795-2.330068 36.680411-25.188682 32.458249-51.847855-0.822738-5.192256 2.719948-10.06831 7.912204-10.891048 5.192256-0.822738 10.06831 2.719948 10.891048 7.913227C531.869536 96.362067 510.160095 129.739245 476.79929 133.30342z"  horiz-adv-x="1024" />

    
    <glyph glyph-name="mima" unicode="&#59089;" d="M780.8 457.420308 665.6 457.420308 665.6 500.310154c0 72.310154-19.849846 193.299692-153.6 193.299692-138.870154 0-153.6-135.049846-153.6-193.299692l0-42.889846L243.2 457.420308 243.2 500.310154C243.2 689.750154 348.790154 812 512 812s268.8-122.249846 268.8-311.689846L780.8 457.420308zM588.8 142.579692C588.8 186.099692 554.220308 221.230769 512 221.230769s-76.8-35.131077-76.8-78.651077c0-29.459692 15.399385-54.468923 38.439385-67.820308l0-89.639385c0-21.740308 17.250462-39.699692 38.4-39.699692s38.4 17.959385 38.4 39.699692l0 89.639385C573.44 88.110769 588.8 113.12 588.8 142.579692zM896 300l0-393.609846c0-65.260308-51.869538-118.390154-115.2-118.390154L243.2-212c-63.291077 0-115.2 53.129846-115.2 118.390154L128 300c0 65.220923 51.869538 118.390154 115.2 118.390154l537.6 0C844.130462 418.390154 896 365.220923 896 300z"  horiz-adv-x="1024" />

    
    <glyph glyph-name="icon1" unicode="&#58882;" d="M127.260917 33.176866c-42.73122 0-77.494978 32.878828-77.494978 73.290213l0 542.198789c0 40.413432 34.764781 73.291237 77.494978 73.291237l762.869654 0c42.73122 0 77.494978-32.877805 77.494978-73.291237l0-542.198789c0-40.411385-34.764781-73.290213-77.494978-73.290213L127.260917 33.176866zM127.260917 657.371134c-4.682649 0-8.492418-3.904936-8.492418-8.705266l0-542.198789c0-4.799306 3.809769-8.705266 8.492418-8.705266l762.869654 0c4.682649 0 8.493441 3.904936 8.493441 8.705266l0 542.198789c0 4.800329-3.810792 8.705266-8.493441 8.705266L127.260917 657.371134zM756.3251 372.081553c0-19.580964-15.873526-35.45449-35.453467-35.45449l-56.487525 0c-19.580964 0-35.453467 15.873526-35.453467 35.45449l0 0c0 19.580964 15.873526 35.45449 35.453467 35.45449l56.487525 0C740.451574 407.536043 756.3251 391.662517 756.3251 372.081553L756.3251 372.081553zM822.325279 540.255787c0-19.497053-15.804964-35.303041-35.302017-35.303041L212.976114 504.952746c-19.497053 0-35.302017 15.804964-35.302017 35.303041l0 0c0 19.497053 15.804964 35.302017 35.302017 35.302017l574.047148 0C806.519292 575.557804 822.325279 559.75284 822.325279 540.255787L822.325279 540.255787zM591.068312 372.081553c0-19.498076-15.804964-35.303041-35.302017-35.303041L212.976114 336.778512c-19.497053 0-35.302017 15.804964-35.302017 35.303041l0 0c0 19.497053 15.804964 35.302017 35.302017 35.302017l342.79018 0C575.263347 407.38357 591.068312 391.578606 591.068312 372.081553L591.068312 372.081553zM822.325279 226.779236c0-19.4991-15.804964-35.304064-35.302017-35.304064L444.232059 191.475172c-19.497053 0-35.302017 15.804964-35.302017 35.304064l0 0c0 19.497053 15.804964 35.302017 35.302017 35.302017l342.79018 0C806.519292 262.081253 822.325279 246.276289 822.325279 226.779236L822.325279 226.779236z"  horiz-adv-x="1024" />

    
    <glyph glyph-name="icon" unicode="&#58943;" d="M873.98587 384.230244c23.939225-0.320295 47.88459-0.639566 71.822792-0.958838-0.638543-0.63752-1.276063-1.276063-1.914606-1.913583-37.663808-56.814983-75.337849-113.64634-113.000634-170.459277-0.638543 0.320295-1.277086 0.638543-1.916653 0.957815-37.981033 57.452503-75.974345 114.921379-113.957425 172.374906 23.939225 0 47.88459 0 71.823815 0 2.456958 147.118686-102.745059 240.978377-220.256426 270.052552-61.804624 15.291265-132.651182-2.13257-175.246303-22.025643-17.676591-8.255011-32.69668-25.062815-52.66957-29.687136-32.355919-7.489578-63.152319 24.143886-50.754964 57.458643 8.836249 23.74275 36.657898 32.898271 57.45762 45.008077 59.767222 34.796504 167.610392 54.748928 254.731612 30.643927C747.232001 694.973544 874.512872 571.222055 873.98587 384.230244zM237.158886 384.230244c-2.413979-144.517441 101.345176-240.326531 216.425168-269.094738 65.179488-16.295128 139.481751 1.283226 183.865611 23.940249 15.639189 8.937556 31.283494 17.877159 46.924729 26.814716 33.232892 8.856715 64.129576-24.098861 51.710732-57.45762-7.695263-20.672832-30.831192-29.606295-48.839335-40.222073-60.294225-35.541471-166.753885-61.726853-258.560824-36.389792C278.944572 73.14823 149.454382 194.370105 150.015154 384.230244c-23.939225 0-47.88459 0-71.822792 0 0 0.319272 0 0.638543 0 0.957815 0.638543 0.638543 1.277086 1.277086 1.915629 1.915629 37.663808 56.81396 75.337849 113.645316 113.000634 170.459277 0.638543-0.319272 1.277086-0.638543 1.915629-0.957815 37.982056-57.452503 75.976392-114.922403 113.958448-172.373883C285.043477 384.230244 261.097088 384.230244 237.158886 384.230244z"  horiz-adv-x="1024" />

    
    <glyph glyph-name="date" unicode="&#58903;" d="M915.880537 487.811344c-20.162202 0-36.839023-16.496719-36.839023-36.658921l0-403.25018c0-20.162202-16.362666-23.966854-36.524868-23.966854L182.652993 23.935388c-20.161179 0-36.298717 3.805676-36.298717 23.966854L146.354276 597.789131c0 20.162202 16.137539 47.293119 36.298717 47.293119L221.055628 645.08225l0-28.963659c0-50.590212 39.460734-91.647303 90.050945-91.647303s90.050945 41.058115 90.050945 91.647303l0 28.963659 223.080751 0 0-28.963659c0-50.590212 39.460734-91.647303 90.050945-91.647303s90.050945 41.058115 90.050945 91.647303l0 28.963659 38.176484 0c20.162202 0 36.658921-20.439518 36.658921-40.60172s16.496719-40.60172 36.658921-40.60172 36.658921 19.24532 36.658921 39.407522c0 60.488653-49.489134 115.473965-109.977787 115.473965L804.340161 718.760297l0 7.335059c0 50.590212-39.460734 91.647303-90.050945 91.647303s-90.050945-41.058115-90.050945-91.647303l0-7.335059L401.157519 718.760297l0 7.335059c0 50.590212-39.460734 91.647303-90.050945 91.647303s-90.050945-41.058115-90.050945-91.647303l0-7.335059-38.402635 0C122.165364 718.760297 72.67623 658.277784 72.67623 597.789131l0-549.885865c0-60.486606 49.489134-97.645924 109.976764-97.645924l659.863652 0c60.488653 0 110.202914 37.159318 110.202914 97.644901L952.71956 451.152423C952.71956 471.314625 936.042739 487.811344 915.880537 487.811344zM697.916317 726.095355c0 10.265808 8.153704 18.329461 18.419512 18.329461s18.419512-8.063653 18.419512-18.329461l0-109.976764c0-10.263761-8.153704-18.329461-18.419512-18.329461s-18.419512 8.065699-18.419512 18.329461L697.916317 726.095355zM294.733675 726.095355c0 10.265808 6.107091 18.329461 16.372899 18.329461s16.372899-8.063653 16.372899-18.329461l0-109.976764c0-10.263761-6.107091-18.329461-16.372899-18.329461s-16.372899 8.065699-16.372899 18.329461L294.733675 726.095355zM805.857724 390.279007c20.262486 0 36.658921 16.576537 36.658921 36.839023 0 20.262486-16.396435 36.839023-36.658921 36.839023L219.312938 463.957053c-20.262486 0-36.658921-16.576537-36.658921-36.839023 0-20.262486 16.396435-36.839023 36.658921-36.839023L327.479473 390.279007l0-148.379399L219.312938 241.899608c-20.262486 0-36.658921-17.08819-36.658921-37.350676s16.396435-37.350676 36.658921-37.350676L327.479473 167.198256l0-82.636069c0-20.262486 16.576537-36.658921 36.839023-36.658921s36.839023 16.396435 36.839023 36.658921l0 82.636069 223.080751 0 0-82.636069c0-20.262486 16.576537-36.658921 36.839023-36.658921s36.839023 16.396435 36.839023 36.658921l0 82.636069 107.941408 0c20.262486 0 36.658921 17.08819 36.658921 37.350676s-16.396435 37.350676-36.658921 37.350676L697.916317 241.899608l0 148.379399L805.857724 390.279007zM624.23827 241.899608 401.157519 241.899608l0 148.379399 223.080751 0L624.23827 241.899608z"  horiz-adv-x="1024" />

    
    <glyph glyph-name="eye" unicode="&#59244;" d="M511.996418 668.767696c-218.251769 0-407.427316-127.125329-500.371148-312.714188 92.942809-185.639001 282.118356-312.726467 500.371148-312.726467 218.249723 0 407.399687 127.093607 500.375242 312.726467C919.427828 541.651576 730.250234 668.767696 511.996418 668.767696M758.70838 502.930693c58.797128-37.495986 108.615767-87.751576 146.047284-146.884348-37.436634-59.131749-87.256296-109.391433-146.047284-146.916071-73.870428-47.124274-159.179372-71.988568-246.718101-71.988568-87.533612 0-172.848697 24.859177-246.717078 71.988568-58.792011 37.524638-108.618836 87.779206-146.047284 146.916071 37.435611 59.101049 87.255273 109.393479 146.047284 146.884348 3.818979 2.438539 7.693216 4.78498 11.603269 7.101745-9.754155-26.676569-15.074324-55.514361-15.074324-85.58933 0-138.192386 112.022353-250.178923 250.183016-250.178923 138.16578 0 250.191202 111.98756 250.191202 250.178923 0 30.081109-5.320169 58.881039-15.044648 85.557608 3.876284-2.28095 7.759731-4.628414 11.567453-7.064906M511.996418 455.707159c0-51.815109-41.998533-93.817736-93.819782-93.817736-51.822272 0-93.819782 41.996486-93.819782 93.817736 0 51.783387 41.99751 93.818759 93.819782 93.818759C469.997885 549.524894 511.996418 507.495662 511.996418 455.707159L511.996418 455.707159zM511.996418 455.707159"  horiz-adv-x="1024" />

    
    <glyph glyph-name="thumbdown" unicode="&#58937;" d="M977.44 290.912c0-27.936-18.624-46.56-46.56-46.56l-390.976 0c13.952-27.936 18.624-60.512 18.624-93.088l0-46.56c0-79.136-60.512-139.648-139.648-139.648l-46.56 0 0 139.648c0 130.336-102.4 232.736-232.736 232.736l-46.56 0 0 418.912 107.04 0c23.264 0 46.56 4.64 69.824 9.312l121.024 27.936c18.624 4.64 37.248 9.312 60.512 9.312l269.952 0c51.2 0 93.088-41.888 93.088-93.088 0-27.936-18.624-46.56-46.56-46.56l23.264 0c51.2 0 93.088-41.888 93.088-93.088 0-27.936-18.624-46.56-46.56-46.56 51.2 0 93.088-41.888 93.088-93.088 0-27.936-18.624-46.56-46.56-46.56 51.2 0 93.088-41.888 93.088-93.088z"  horiz-adv-x="1024" />

    
    <glyph glyph-name="thumbup" unicode="&#58957;" d="M39.233-45.789h171.915v515.746h-171.915l-0-515.746zM984.767 426.979c0 47.277-38.681 85.958-85.958 85.958h-271.197l40.83 196.413 1.289 13.753c0 17.621-7.306 33.953-18.911 45.558l-45.558 45.128-282.801-283.231c-15.902-15.472-25.358-36.962-25.358-60.6v-429.789c0-47.277 38.681-85.958 85.958-85.958h386.81c35.672 0 66.187 21.489 79.081 52.434l129.796 303.001c3.868 9.885 6.017 20.2 6.017 31.375v82.090l-0.43 0.43 0.43 3.438z"  horiz-adv-x="1024" />

    
    <glyph glyph-name="color" unicode="&#58929;" d="M832-64l-640 0c-70.4 0-128 57.6-128 128l0 640c0 70.4 57.6 128 128 128l640 0c38.4 0 64-12.8 89.6-38.4 25.6-25.6 38.4-51.2 38.4-89.6l0-640C960-6.4 902.4-64 832-64L832-64zM832 704l-640 0 0-640 480 0 160 0L832 704 832 704zM832 256l-160-192-160 192L832 256 832 256z"  horiz-adv-x="1024" />

    
    <glyph glyph-name="smile" unicode="&#58987;" d="M512 768C300.288 768 128 595.776 128 384s172.224-384 384-384 384 172.224 384 384S723.712 768 512 768zM512 54.848c-181.504 0-329.152 147.648-329.152 329.152S330.496 713.152 512 713.152 841.152 565.504 841.152 384 693.504 54.848 512 54.848zM422.016 430.976 422.016 485.824c0 22.72-18.432 41.152-41.152 41.152S339.776 508.544 339.776 485.824l0-54.848c0-22.72 18.432-41.152 41.152-41.152C403.648 389.824 422.016 408.256 422.016 430.976zM644.928 526.976c-22.72 0-41.152-18.432-41.152-41.152l0-54.848c0-22.72 18.432-41.152 41.152-41.152s41.152 18.432 41.152 41.152L686.08 485.824C686.016 508.544 667.648 526.976 644.928 526.976zM611.2 342.4c-10.624 0-19.2-8.576-19.2-19.2 0-33.6-35.904-60.992-80-60.992S432 289.6 432 323.2c0 10.624-8.576 19.2-19.2 19.2-10.624 0-19.2-8.576-19.2-19.2 0-54.784 53.12-99.392 118.4-99.392S630.4 268.416 630.4 323.2C630.4 333.824 621.824 342.4 611.2 342.4z"  horiz-adv-x="1024" />

    
    <glyph glyph-name="home" unicode="&#58880;" d="M829.868263 429.240685 572.96272 696.415541c-15.971379 16.605077-37.316419 25.722543-60.185497 25.722543-22.870294 0-44.215335-9.117467-60.157522-25.722543L195.684966 429.240685c-26.514362-27.609042-23.101393-51.430491-18.708078-61.381131 3.124703-7.086227 13.65309-26.499766 44.041402-26.499766l37.647256 0 0-205.546815c0-46.662552 33.542206-90.603 81.227676-90.603l109.354866 0L449.248087 262.738667c0 23.331276-3.528518 36.321477 20.322123 36.321477l86.427405 0c23.849425 0 20.306311-12.991417 20.306311-36.321477l0-217.52991 109.354866 0c47.670874 0 81.214296 43.940448 81.214296 90.603L766.873088 341.359788l37.661851 0c30.388312 0 40.930079 19.413539 44.041402 26.499766C852.969656 377.81141 856.381408 401.632859 829.868263 429.240685L829.868263 429.240685zM804.533723 383.672812"  horiz-adv-x="1024" />

    
    <glyph glyph-name="close" unicode="&#58940;" d="M574.85863 384l298.588469 298.588469c17.359366 17.35732 17.359366 45.500287 0 62.859653-17.35732 17.359366-45.500287 17.359366-62.859653 0L511.998977 446.860676 213.410508 745.449145c-17.35732 17.359366-45.500287 17.359366-62.859653 0-17.35732-17.359366-17.35732-45.502333 0-62.859653l298.588469-298.588469L150.549831 85.411531c-17.35732-17.359366-17.35732-45.502333 0-62.859653 17.359366-17.359366 45.502333-17.359366 62.859653 0l298.588469 298.588469 298.588469-298.588469c17.359366-17.359366 45.502333-17.359366 62.859653 0 17.359366 17.35732 17.359366 45.500287 0 62.859653L574.85863 384z"  horiz-adv-x="1024" />

    
    <glyph glyph-name="cion24" unicode="&#58904;" d="M534.111297 606.055803 534.111297 606.055803c12.349205-12.352854 12.429481-32.293055 0.18123-44.547387L131.669287 158.891257c-12.248251-12.253116-32.194534-12.17284-44.542522 0.180014l0 0c-12.352854 12.349205-12.43313 32.289406-0.180014 44.542522l402.617159 402.618375C501.818242 618.485284 521.758443 618.405008 534.111297 606.055803L534.111297 606.055803zM534.111297 606.055803M936.873197 160.083241 936.873197 160.083241c-12.347988-12.352854-32.289406-12.428265-44.542522-0.180014L489.711083 562.520386c-12.253116 12.254333-12.171623 32.194534 0.176365 44.547387l0 0c12.352854 12.349205 32.294271 12.429481 44.547387 0.176365l402.618375-402.618375C949.307543 192.377513 949.224834 172.432446 936.873197 160.083241L936.873197 160.083241zM936.873197 160.083241"  horiz-adv-x="1024" />

    
    <glyph glyph-name="account" unicode="&#59085;" d="M845.497 111.65c0-7.364 0-14.73 0-22.093-0.482-0.914-0.112-1.902-0.23-2.848 0-0.622 0-1.246 0-1.87-0.313-24.72-8.465-46.585-24.153-65.612-5.824-7.071-12.426-13.385-20.379-18.051-5.098-2.989-10.645-5.098-16.177-7.135-23.466-8.653-47.742-14.106-72.318-18.379-16.237-2.821-32.558-4.992-48.937-6.731-9.514-1.008-19.058-1.758-28.595-2.511-15.105-1.199-30.235-1.367-45.366-1.616-2.601-0.047-5.201-0.187-7.806-0.197-2.207 0-4.413 0-6.62 0-1.831 0-3.654 0-5.481 0-1.139 0-2.277 0-3.414 0-2.909 0-5.819 0-8.723 0-9.744 0-19.487 0-29.237 0-3.106 0-6.211 0-9.318 0-4.741 0-9.472 0-14.211 0-3.106 0-6.211 0-9.32 0-9.744 0-19.488 0-29.235 0-2.907 0-5.816 0-8.723 0-1.139 0-2.277 0-3.413 0-1.822 0-3.643 0-5.465 0-2.181 0-4.363 0-6.542 0-11.972 0.155-23.946 0.351-35.913 0.75-11.168 0.374-22.304 1.433-33.44 2.408-19.092 1.659-38.098 4.001-56.998 7.116-20.437 3.369-40.684 7.622-60.526 13.674-9.99 3.044-19.779 6.592-29.287 10.915-5.736 2.61-10.494 6.606-15.068 10.812-17.554 16.167-27.272 36.513-31.641 59.674-1.407 7.468-2.108 14.996-2.438 22.6-0.302 6.97-0.168 13.928 0.194 20.865 0.453 8.639 1.57 17.24 3.172 25.756 2.286 12.148 5.038 24.168 9.805 35.633 5.739 13.811 11.725 27.494 18.282 40.943 10.564 21.673 22.346 42.631 35.942 62.552 9.17 13.427 19.059 26.308 29.852 38.497 5.953 6.718 12.117 13.23 18.627 19.395 15.862 15.029 33.046 28.314 52.192 38.967 14.335 7.973 29.306 14.42 45.201 18.549 7.563 1.968 15.232 3.424 23.070 4.022 4.221 0.321 8.42 0.344 12.632 0.346 58.208 0.019 116.413-0.023 174.624 0.042 12.686 0.014 25.027-1.961 37.159-5.479 19.527-5.663 37.61-14.417 54.605-25.491 12.49-8.143 24.117-17.352 35.097-27.433 14.326-13.16 27.206-27.604 39.029-43.025 14.4-18.775 26.984-38.72 38.274-59.51 12.091-22.266 22.586-45.269 31.766-68.865 3.251-8.366 4.915-17.236 6.746-26.023 1.879-9.033 2.362-18.187 2.47-27.383 0.116-1.087-0.254-2.207 0.234-3.265zM524.282 802.923c15.418-1.176 30.543-3.87 45.301-8.557 58.822-18.687 105.049-64.361 124.449-123.028 4.736-14.323 7.65-29.016 8.905-44.055 7.441-88.719-46.645-168.972-128.233-197.417-13.876-4.84-28.133-7.976-42.758-9.517-57.179-6.023-113.049 13.211-154.351 53.492-28.362 27.658-46.402 61.055-54.305 99.871-3.399 16.694-4.503 33.591-3.233 50.576 3.502 46.833 21.468 87.32 54.185 121.027 26.894 27.705 59.446 45.481 97.173 53.743 9.074 1.989 18.277 3.104 27.53 3.862 0.988 0.41 2.021 0.098 3.028 0.197 0.986 0.107 2.007-0.234 2.965 0.229 4.446 0 8.896 0 13.347 0 0.955-0.463 1.976-0.122 2.96-0.229 1.013-0.099 2.043 0.21 3.037-0.194zM465.8-35.178c9.833-0.005 19.668-0.010 29.504-0.010 0.303-0.168 0.293-0.309-0.030-0.431-9.816 0-19.636 0-29.453 0-0.316 0.132-0.323 0.282-0.021 0.441zM527.927-35.188c9.828 0.005 19.665 0.005 29.494 0.010 0.306-0.159 0.301-0.309-0.018-0.441-9.821 0-19.634 0-29.452 0-0.324 0.121-0.333 0.266-0.024 0.431zM504.549-35.244c4.708 0.15 9.417 0.154 14.129 0 0.122-0.042 0.24-0.085 0.361-0.126-0.098-0.085-0.192-0.164-0.295-0.249-4.75 0-9.51 0-14.265 0-0.095 0.085-0.194 0.169-0.292 0.249 0.119 0.042 0.241 0.085 0.362 0.126zM504.549-35.244c-0.021-0.126-0.044-0.254-0.071-0.375-3.067 0-6.136 0-9.205 0 0.008 0.141 0.016 0.287 0.030 0.431 3.083-0.019 6.163-0.037 9.245-0.056zM518.744-35.619c-0.023 0.121-0.047 0.253-0.066 0.375 3.082 0.019 6.165 0.037 9.249 0.056 0.009-0.14 0.018-0.289 0.024-0.431-3.069 0-6.139 0-9.207 0zM465.8-35.178c0.012-0.15 0.016-0.295 0.021-0.441-2.916 0-5.83 0-8.744 0-0.321 0.128-0.328 0.273-0.021 0.431 2.914-0 5.83 0.005 8.744 0.010zM557.403-35.619c0.004 0.145 0.009 0.29 0.018 0.441 2.914-0.005 5.833-0.010 8.751-0.010 0.299-0.158 0.295-0.303-0.024-0.431-2.918 0-5.831 0-8.745 0zM441.431-35.619c-0.003 0.141-0.008 0.277-0.010 0.418 2.295 0.182 4.586 0.004 6.88-0.034 0.342-0.097 0.353-0.225 0.032-0.384-2.3 0-4.603 0-6.902 0zM581.806-35.201c-0.006-0.141-0.006-0.277-0.010-0.418-2.299 0-4.605 0-6.9 0-0.323 0.159-0.309 0.287 0.028 0.384 2.295 0.038 4.587 0.22 6.883 0.034zM448.333-35.619c-0.009 0.128-0.021 0.258-0.032 0.384 1.838 0.202 3.679 0.034 5.518-0.004 0.344-0.093 0.356-0.221 0.035-0.38-1.838 0-3.679 0-5.521 0zM574.923-35.235c-0.010-0.126-0.019-0.256-0.033-0.384-1.841 0-3.682 0-5.524 0-0.317 0.159-0.308 0.282 0.038 0.38 1.842 0.041 3.683 0.206 5.519 0.004zM502.128 802.958c-1.061-0.011-2.122-0.026-3.183-0.037 0.009 0.143 0.014 0.283 0.011 0.426 1.076 0 2.148 0 3.223 0 0.315-0.171 0.298-0.302-0.051-0.389zM524.282 802.923c-1.063-0.183-2.122-0.003-3.186 0.035-0.347 0.087-0.366 0.215-0.047 0.389 1.068 0 2.146 0 3.218 0-0-0.143 0.004-0.283 0.014-0.423zM845.117 114.91c0.131 0.043 0.259 0.029 0.38-0.038 0-1.077 0-2.15 0-3.222-0.548 1.039-0.562 2.136-0.38 3.26zM453.857-35.619c-0.011 0.128-0.023 0.253-0.035 0.38 1.078 0.014 2.157 0.032 3.236 0.051 0.016-0.144 0.021-0.289 0.021-0.431-1.073 0-2.149 0-3.221 0zM569.404-35.239c-0.009-0.128-0.023-0.253-0.038-0.38-1.072 0-2.144 0-3.218 0-0.004 0.141 0.006 0.287 0.024 0.431 1.078-0.019 2.155-0.037 3.232-0.051zM502.128 802.958c0.019 0.129 0.035 0.258 0.051 0.389 0.918 0 1.838 0 2.759 0-0.869-0.613-1.841-0.49-2.811-0.389zM521.049 803.347c0.014-0.129 0.028-0.26 0.047-0.386-0.965-0.098-1.941-0.232-2.811 0.386 0.918 0 1.841 0 2.764 0zM845.103 86.768c-0.192 0.975 0.010 1.898 0.394 2.788 0-0.918 0-1.837 0-2.76-0.107-0.351-0.239-0.355-0.394-0.028zM845.103 86.768c0.131-0.004 0.263 0.005 0.394 0.028 0-0.614 0-1.227 0-1.841l-0.196-0.019h-0.198c-0 0.615-0 1.223-0 1.832z"  horiz-adv-x="1024" />

    
    <glyph glyph-name="biaoqian" unicode="&#58888;" d="M817.403509 306.750877c0 18.863158-6.287719 35.031579-19.761404 49.403509L412.294737 740.603509c-13.473684 13.473684-32.336842 25.150877-54.792982 35.031579-23.354386 9.880702-44.014035 14.37193-62.877193 14.37193L70.063158 790.007018c-18.863158 0-35.031579-7.185965-48.505263-20.659649-13.473684-13.473684-20.659649-29.642105-20.659649-48.505263l0-223.663158c0-18.863158 4.491228-40.421053 14.37193-62.877193 9.880702-23.354386 20.659649-41.319298 35.031579-54.792982l385.347368-385.347368c13.473684-13.473684 29.642105-19.761404 48.505263-19.761404 18.863158 0 35.031579 6.287719 49.403509 19.761404L797.642105 258.245614C810.217544 271.719298 817.403509 287.887719 817.403509 306.750877L817.403509 306.750877zM221.866667 568.140351c-13.473684-13.473684-29.642105-19.761404-48.505263-19.761404-18.863158 0-35.031579 6.287719-48.505263 19.761404-13.473684 13.473684-19.761404 29.642105-19.761404 48.505263 0 18.863158 6.287719 35.031579 19.761404 48.505263 13.473684 13.473684 29.642105 19.761404 48.505263 19.761404 18.863158 0 35.031579-6.287719 48.505263-19.761404 13.473684-13.473684 19.761404-29.642105 19.761404-48.505263C242.526316 597.782456 235.340351 581.614035 221.866667 568.140351L221.866667 568.140351zM1004.238596 356.154386 618.891228 740.603509c-13.473684 13.473684-32.336842 25.150877-54.792982 35.031579-23.354386 9.880702-44.014035 14.37193-62.877193 14.37193L379.957895 790.007018c18.863158 0 40.421053-4.491228 62.877193-14.37193 23.354386-9.880702 41.319298-20.659649 54.792982-35.031579l385.347368-384.449123c13.473684-14.37193 19.761404-30.540351 19.761404-49.403509 0-18.863158-6.287719-35.031579-19.761404-48.505263L630.568421 4.940351c10.778947-10.778947 20.659649-18.863158 28.74386-24.252632 8.084211-5.389474 18.863158-7.185965 31.438596-7.185965 18.863158 0 35.031579 6.287719 49.403509 19.761404L1004.238596 258.245614c13.473684 13.473684 19.761404 29.642105 19.761404 48.505263C1024 325.614035 1017.712281 341.782456 1004.238596 356.154386L1004.238596 356.154386zM1004.238596 356.154386"  horiz-adv-x="1024" />

    
    <glyph glyph-name="zhengque-copy" unicode="&#58885;" d="M512.319 833.393c-247.149 0-447.501-200.352-447.501-447.501 0-247.144 200.352-447.501 447.501-447.501 247.145 0 447.502 200.357 447.502 447.501 0 247.149-200.352 447.501-447.502 447.501v0zM512.319-5.566c-216.197 0-391.459 175.262-391.459 391.458 0 216.197 175.263 391.46 391.459 391.46 216.197 0 391.459-175.263 391.459-391.46 0-216.197-175.261-391.458-391.459-391.458v0zM458.84 185.308l-210.14 202.647 52.587 54.532 153.857-148.368 264.626 292.359 56.171-50.838-317.101-350.332zM458.84 185.308z"  horiz-adv-x="1024" />

    
    <glyph glyph-name="dongman-copy" unicode="&#58884;" d="M875.212 620.651c31.304 30.413 28.076 76.58-7.176 102.596 0 0-96.183 106.245-282.235 106.245-253.25 0-458.536-199.449-458.536-445.504 0-246.024 205.286-445.479 458.536-445.479 169.955 0 271.287 97.112 271.287 97.112 35.872 25.189 40.518 71.526 10.311 102.966l-180.843 188.236c-30.205 31.446-29.31 82.054 1.996 112.467l186.66 181.361zM552.217 626.825c0 44.676 36.328 80.87 81.116 80.87 44.841 0 81.143-36.194 81.143-80.87 0-44.669-36.302-80.882-81.143-80.882-44.788 0-81.116 36.213-81.116 80.882z"  horiz-adv-x="1024" />

    
    <glyph glyph-name="pause" unicode="&#58960;" d="M51.2 742.696858C51.2 827.36384 120.141676 896 204.8 896 289.630935 896 358.4 827.222426 358.4 742.696858L358.4 25.303142C358.4-59.36384 289.458324-128 204.8-128 119.969065-128 51.2-59.222426 51.2 25.303142L51.2 742.696858ZM665.6 742.696858C665.6 827.36384 734.541676 896 819.2 896 904.030935 896 972.8 827.222426 972.8 742.696858L972.8 25.303142C972.8-59.36384 903.858324-128 819.2-128 734.369065-128 665.6-59.222426 665.6 25.303142L665.6 742.696858Z"  horiz-adv-x="1024" />

    
    <glyph glyph-name="play" unicode="&#58986;" d="M0 742.7072A153.7024 153.7024 0 0 0 153.6 896h1484.8c84.8384 0 153.6-68.7616 153.6-153.2928v-717.4144A153.7024 153.7024 0 0 0 1638.4-128H153.6c-84.8384 0-153.6 68.7616-153.6 153.2928V742.7072zM1210.9312 414.72l-427.7248 269.568a46.2336 46.2336 0 0 1-43.6736 2.6112c-13.9776-6.4512-22.7328-19.3536-22.7328-33.4336v-539.0848c0-14.0288 8.7552-26.9312 22.7328-33.3824a45.9776 45.9776 0 0 1 43.6736 2.6624l427.7248 269.5168A36.608 36.608 0 0 1 1228.8 384c0 12.288-6.656 23.7568-17.8688 30.7712z"  horiz-adv-x="1792" />

    
    <glyph glyph-name="smile1" unicode="&#58935;" d="M511.000741 832.390263c-247.102864 0-447.419146-200.316282-447.419145-447.418122s200.315258-447.418123 447.419145-447.418123c247.101841 0 447.418123 200.316282 447.418123 447.418123S758.102582 832.390263 511.000741 832.390263zM328.604598 526.947689c33.908274 0 61.395302-27.487028 61.395302-61.395302 0-33.907251-27.487028-61.395302-61.395302-61.395302-33.907251 0-61.395302 27.487028-61.395302 61.395302 0.001023 33.908274 27.488051 61.395302 61.395302 61.395302z m-61.394279-245.580184h80.325444c72.140017-141.209092 259.395842-159.627581 322.325079 0h85.952604c-61.394279-263.999696-431.428963-248.190639-488.603127 0zM694.419168 404.158109c-33.908274 0-61.395302 27.487028-61.395302 61.395302 0 33.908274 27.487028 61.395302 61.395302 61.395302 33.907251 0 61.394279-27.487028 61.394278-61.395302 0-33.908274-27.488051-61.395302-61.394278-61.395302z"  horiz-adv-x="1024" />

    
    <glyph glyph-name="yinyue" unicode="&#59008;" d="M179.2-128c-97.745 0-179.2 79.127-179.2 179.2s79.127 179.2 179.2 179.2c39.564 0 76.8-13.964 109.382-37.236l9.309-6.982v574.836c0 34.909 27.927 62.836 60.509 62.836l602.764 69.818c32.582 2.327 62.836-25.6 62.836-60.509v-672.582c0-48.873-18.618-93.091-53.527-125.673-32.582-32.582-79.127-51.2-125.673-51.2-97.745 0-179.2 79.127-179.2 179.2 0 97.745 79.127 179.2 179.2 179.2 39.564 0 79.127-13.964 109.382-37.236l9.309-6.982v311.855l-605.091-65.164v-493.382c-2.327-100.073-81.455-179.2-179.2-179.2zM179.2 167.564c-65.164 0-118.691-53.527-118.691-118.691s53.527-118.691 118.691-118.691 118.691 53.527 118.691 118.691c-2.327 67.491-53.527 118.691-118.691 118.691zM844.8 279.273c-65.164 0-118.691-53.527-118.691-118.691s53.527-118.691 118.691-118.691 118.691 53.527 118.691 118.691-53.527 118.691-118.691 118.691zM356.073 605.091l605.091 65.164v165.236l-598.109-69.818h-6.982v-160.582z"  horiz-adv-x="1024" />

    
    <glyph glyph-name="play1" unicode="&#59102;" d="M917.8112 445.5936L160.5888 887.4496C151.3728 892.8256 141.824 896 130.944 896 101.2736 896 77.0816 871.9872 77.0816 842.6752H76.8v-917.3504h0.256C77.056-103.9872 101.2992-128 130.944-128c11.1616 0 20.4032 3.7376 30.464 9.0624l756.4288 441.344A79.3344 79.3344 0 0 1 947.2 384c0 24.8064-11.4176 46.6688-29.3888 61.5936z"  horiz-adv-x="1024" />

    
    <glyph glyph-name="ninhuanmeiyoushangchuanwuding" unicode="&#59030;" d="M176.224 742.4l686.208-5.952 8.384-65.536 67.904-185.856s27.456-91.712-14.336-108.352c-41.664-16.704-57.216-53.568-57.216-53.568v-300.224H157.152V339.776s-72.704 26.24-76.224 60.8c-3.584 34.56-14.336 100.032 8.32 135.808 22.592 35.712 86.976 114.304 86.976 114.304V742.4zM1024.224 441.6v49.088c0 0.768 0 1.536-0.128 2.304l-0.064 0.384a16 16 0 0 1-0.896 3.968 4.416 4.416 0 0 1-0.192 0.512l-0.64 1.536-0.128 0.192-96.128 209.088v80.64a21.312 21.312 0 0 1-21.376 21.312H119.712a21.312 21.312 0 0 1-21.312-21.312v-80.704L2.144 499.584l-0.064-0.192-0.576-1.536-0.192-0.512-0.512-1.728a1.216 1.216 0 0 0-0.128-0.448l-0.256-1.856-0.064-0.384C0.224 492.16 0.224 491.456 0.224 490.688V441.6a119.68 119.68 0 0 1 98.112-117.504V0h-76.8a21.312 21.312 0 0 1 0-42.688h981.312a21.312 21.312 0 1 1 0 42.688h-76.736V324.032A119.68 119.68 0 0 1 1024.224 441.6zM969.568 512h-146.752l-47.104 170.688h115.392L969.568 512z m-337.984-19.392l-17.472 190.08h117.376L778.592 512h-79.936a21.248 21.248 0 1 1 0-42.624h86.656V441.6a76.864 76.864 0 0 0-153.6 0v49.088l-0.128 1.92zM141.024 768h742.4v-42.688H141.024V768z m374.08-256H437.472l15.68 170.688h118.144L589.024 489.664V441.6a76.864 76.864 0 0 0-153.6 0v27.712h79.68a21.312 21.312 0 1 1 0 42.688z m-135.808-42.688h13.44V441.6c0-42.368-34.496-76.8-76.8-76.8s-76.8 34.432-76.8 76.8v46.208l53.76 194.88h117.376L394.656 512h-15.36a21.312 21.312 0 1 1 0-42.688zM42.912 441.6v27.712h57.728a21.312 21.312 0 1 1 0 42.688H54.88L133.344 682.688h115.328l-51.392-186.368a20.672 20.672 0 0 1-0.832-5.632V441.6a76.8 76.8 0 0 0-153.536 0z m311.424-302.976H333.024a21.312 21.312 0 0 1 0-42.624h21.312V0h-128v234.688h128v-96.064zM883.424 0H397.024v256a21.376 21.376 0 0 1-21.312 21.376H205.024a21.312 21.312 0 0 1-21.312-21.376v-256H141.024V324.032c31.68 5.76 59.072 24.064 76.8 49.536a119.296 119.296 0 0 1 196.288 0 119.36 119.36 0 0 1 196.224 0 119.296 119.296 0 0 1 196.224 0c17.728-25.472 45.12-43.776 76.8-49.536V0z m21.312 364.8a76.8 76.8 0 0 0-76.736 76.8v27.712h153.6V441.6c0-42.368-34.496-76.8-76.864-76.8zM819.424 277.376H461.024a21.376 21.376 0 0 1-21.312-21.376v-192c0-11.776 9.536-21.376 21.312-21.376h358.4c11.84 0 21.312 9.6 21.312 21.376v192l-0.064 2.112-0.128 0.896a50.56 50.56 0 0 0-0.192 1.216l-0.256 1.024-0.256 1.024-0.384 0.96-0.384 1.088-0.384 0.832a5.696 5.696 0 0 1-0.512 1.088l-0.512 0.832-0.576 1.024-0.64 0.832-0.64 0.832-1.216 1.344-0.256 0.256-0.192 0.128a24.768 24.768 0 0 1-1.344 1.28l-0.896 0.64-0.896 0.64-0.96 0.576-0.832 0.512a4.928 4.928 0 0 1-1.024 0.448l-0.896 0.512-1.024 0.32-1.024 0.32c-0.32 0.128-0.64 0.256-1.024 0.256-0.32 0.128-0.64 0.256-1.024 0.256l-1.152 0.256-1.024 0.128c-0.192-0.32-0.896-0.256-1.6-0.256z m-337.088-192v149.312h164.864l-9.152-9.216a21.184 21.184 0 0 1 0-30.144 21.12 21.12 0 0 1 30.08 0l39.36 39.296h60.288L618.464 85.312H482.336z m315.776 0h-119.168l119.168 119.104v-119.104zM588.512 176l-9.344-9.344a21.504 21.504 0 0 1 0-30.208 21.376 21.376 0 0 1 30.208 0l9.28 9.344a21.312 21.312 0 1 1-30.144 30.208z"  horiz-adv-x="1024" />

    
    <glyph glyph-name="danmujinzhi" unicode="&#58886;" d="M747.178-90.101c-268.185 0-485.546 217.345-485.546 485.546s217.345 485.546 485.546 485.546 485.546-217.345 485.546-485.546-217.345-485.546-485.546-485.546zM1087.146 395.417c0 61.035-17.414 117.588-45.615 167.069l-461.445-461.445c49.54-28.211 106.026-45.615 167.069-45.615 0.001 0 0.001 0 0.002 0 187.748 0 339.901 152.196 339.901 339.901 0 0.001 0 0.001 0 0.002zM407.403 395.417c0.004-74.186 24.15-142.764 64.756-198.457l472.202 474.334c-54.682 39.964-123.215 63.92-197.365 64.022-187.482-0.001-339.586-152.196-339.586-339.901 0 0 0 0 0 0z"  horiz-adv-x="1535" />

    
    <glyph glyph-name="danmudingduan" unicode="&#58934;" d="M902.7 39.2H121.3c-31.7 0-57.5 25.7-57.5 57.3v575c0 31.6 25.8 57.3 57.5 57.3h781.3c31.7 0 57.5-25.7 57.5-57.3v-574.9c0.1-31.7-25.7-57.4-57.4-57.4zM121.3 705.8c-19.1 0-34.5-15.4-34.5-34.3v-574.9c0-18.9 15.5-34.3 34.5-34.3h781.3c19.1 0 34.5 15.4 34.5 34.3V671.5c0 18.9-15.5 34.3-34.5 34.3H121.3zM201.7 590.9m-34.5 0a34.5 34.5 0 1 1 69 0 34.5 34.5 0 1 1-69 0ZM305.1 625.3h574.6v-69H305.1z"  horiz-adv-x="1024" />

    
    <glyph glyph-name="quanxian" unicode="&#58891;" d="M618.409 464.23a342.528 342.528 0 0 0 134.195 27.188c4.608 0 9.19-0.205 13.798-0.205 21.812 55.193 27.392 120.371 16.41 183.757C757.417 820.326 620.2 917.504 476.022 891.904c-144-25.6-265.6-137.574-240-282.931 5.401-31.386 20.608-80.384 38.604-115.763L13.02 115.917c-9.6-13.799-15.206-38.81-12.211-55.808L12.2-4.454c-10.803 62.182 2.995-22.4 11.392-22.196l86.195-1.203c16.589 2.995 37.402 16.999 46.592 31.207l103.398 161.74 0.999 0.999 90.393-7.194 120.781 189.338c0.41 0 0.82-0.205 1.203-0.205 10.804 14.797 22.605 28.8 35.79 42.01a337.843 337.843 0 0 0 109.465 74.188zM69.622 76.134l-12.8-5.401 1.408 14.003 250.598 363.7 15.002-14.004L69.622 76.134z m380.8 669.21c39.603 56.986 117.58 71.194 173.977 30.976a127.232 127.232 0 0 0 30.797-175.949c-39.603-56.985-80-16.793-136.602 23.194-56.37 40.192-107.776 64.589-68.172 121.779z m0 0M749.225 421.427c-151.808 0-274.79-122.957-274.79-274.739 0-151.757 122.982-274.688 274.79-274.688s274.79 122.957 274.79 274.688c0 151.782-123.008 274.74-274.79 274.74z m158.797-387.481c0-41.012-78.592-50.407-152.397-50.407s-153.395 9.395-153.395 50.407v11.366c0 30.208 54.4 60.8 100.608 77.389 3.404 1.203 19.404 10.01 10.393 33.382-22.989 23.399-40.192 61.389-40.192 98.765 0 57.19 37.811 87.168 82.202 87.168 44.21 0 82.406-29.978 82.406-87.168 0-37.197-17.408-74.982-40.192-98.586h0.205c-8.806-26.572 5.197-32.972 7.398-33.587 48.59-16 103.194-46.413 103.194-77.389l-0.23-11.34z m0 0"  horiz-adv-x="1024" />

    
    <glyph glyph-name="thumb_down" unicode="&#58889;" d="M21.333333 896v-1024M42.666667 896v-1024M64 896v-1024M85.333333 896v-1024M106.666667 896v-1024M128 896v-1024M149.333333 896v-1024M170.666667 896v-1024M192 896v-1024M213.333333 896v-1024M234.666667 896v-1024M256 896v-1024M277.333333 896v-1024M298.666667 896v-1024M320 896v-1024M341.333333 896v-1024M362.666667 896v-1024M384 896v-1024M405.333333 896v-1024M426.666667 896v-1024M448 896v-1024M469.333333 896v-1024M490.666667 896v-1024M512 896v-1024M533.333333 896v-1024M554.666667 896v-1024M576 896v-1024M597.333333 896v-1024M618.666667 896v-1024M640 896v-1024M661.333333 896v-1024M682.666667 896v-1024M704 896v-1024M725.333333 896v-1024M746.666667 896v-1024M768 896v-1024M789.333333 896v-1024M810.666667 896v-1024M832 896v-1024M853.333333 896v-1024M874.666667 896v-1024M896 896v-1024M917.333333 896v-1024M938.666667 896v-1024M960 896v-1024M981.333333 896v-1024M1002.666667 896v-1024M0 874.666667h1024M0 853.333333h1024M0 832h1024M0 810.666667h1024M0 789.333333h1024M0 768h1024M0 746.666667h1024M0 725.333333h1024M0 704h1024M0 682.666667h1024M0 661.333333h1024M0 640h1024M0 618.666667h1024M0 597.333333h1024M0 576h1024M0 554.666667h1024M0 533.333333h1024M0 512h1024M0 490.666667h1024M0 469.333333h1024M0 448h1024M0 426.666667h1024M0 405.333333h1024M0 384h1024M0 362.666667h1024M0 341.333333h1024M0 320h1024M0 298.666667h1024M0 277.333333h1024M0 256h1024M0 234.666667h1024M0 213.333333h1024M0 192h1024M0 170.666667h1024M0 149.333333h1024M0 128h1024M0 106.666667h1024M0 85.333333h1024M0 64h1024M0 42.666667h1024M0 21.333333h1024M0 0h1024M0-21.333333h1024M0-42.666667h1024M0-64h1024M0-85.333333h1024M0-106.666667h1024M810 768h172v-512h-172V768zM640 768q34 0 60-26t26-60V256q0-34-26-60L420-86 374-40Q356-22 356 4v14l42 196H128q-34 0-60 25T42 298l2 4h-2V384q0 16 6 32l130 300q20 52 78 52h384z"  horiz-adv-x="1024" />

    
    <glyph glyph-name="screenfull" unicode="&#59428;" d="M224 480H160V704l32 32h224v-64H224zM832 32h-224v64h192v192h64v-224zM416 32H192l-32 32v224h64v-192h192zM864 480h-64V672h-192V736h224l32-32z"  horiz-adv-x="1024" />

    
    <glyph glyph-name="yinle" unicode="&#58997;" d="M575.488 603.2384z m94.1056 213.6064c-239.104 87.04-503.3984-36.2496-590.4384-275.3536-87.04-239.104 36.2496-503.5008 275.3536-590.4384 239.104-87.04 503.3984 36.2496 590.4384 275.3536 86.9376 239.104-36.352 503.5008-275.3536 590.4384m80.7936-455.0656c-3.9936-6.9632-9.3184-13.1072-15.6672-18.1248-5.632-4.096-9.728-5.4272-12.1856-4.096-2.4576 1.2288-4.096 3.9936-4.9152 8.0896-0.8192 4.096-0.1024 10.752 1.9456 20.1728 3.4816 15.2576 2.6624 27.7504-2.3552 37.2736-5.0176 9.6256-14.9504 18.8416-29.5936 27.5456-14.9504 9.0112-27.4432 21.504-36.4544 36.4544-7.9872 12.9024-15.0528 26.4192-21.2992 40.2432-5.2224 10.752-10.4448 15.872-15.6672 15.2576-5.2224-0.6144-9.3184-7.0656-11.4688-13.0048L580.608 446.464l-56.32-154.4192-30.208-83.2512c-2.8672-9.0112-9.3184-14.5408-16.4864-24.4736-7.68-10.3424-17.5104-18.7392-28.9792-24.576-12.1856-6.5536-26.624-10.6496-43.52-12.3904-16.896-1.7408-36.1472 0.8192-57.9584 7.4752-22.1184 6.7584-40.2432 17.8176-54.4768 33.0752-14.2336 15.36-23.6544 31.5392-28.2624 48.5376-4.608 16.384-3.7888 33.8944 2.2528 49.8688 6.144 16.1792 18.5344 28.8768 37.2736 38.0928 18.7392 9.216 37.0688 13.7216 54.8864 13.5168 16.6912 0 33.28-2.56 49.152-7.4752 14.9504-4.7104 27.7504-10.5472 38.4-17.408 10.6496-6.7584 21.2992-11.4688 26.112-15.7696l56.2176 154.4192c16.0768 44.032 35.84 99.4304 56.2176 154.5216 3.9936 10.8544 6.7584 15.9744 14.848 20.8896 7.9872 4.9152 16.7936 6.2464 26.4192 3.9936 8.0896-1.6384 13.9264-5.632 17.3056-11.6736 3.3792-6.144 6.3488-13.9264 8.704-23.4496 2.3552-9.5232 5.5296-20.48 9.5232-32.8704 3.9936-12.3904 10.752-25.7024 20.1728-39.7312 7.8848-12.5952 15.36-22.2208 22.2208-28.9792 6.8608-6.7584 13.4144-13.0048 19.456-18.8416 6.0416-5.8368 11.6736-12.1856 16.9984-19.2512 5.4272-7.0656 10.4448-17.1008 15.2576-30.3104 4.9152-12.6976 6.4512-24.6784 4.5056-35.84-1.4336-9.8304-4.9152-19.456-9.9328-28.3648"  horiz-adv-x="1024" />

    
    <glyph glyph-name="wt-color" unicode="&#58906;" d="M256 469.333333a170.666667 170.666667 0 1 0 0 341.333334 170.666667 170.666667 0 0 0 0-341.333334z m-85.333333-512a170.666667 170.666667 0 1 0 0 341.333334 170.666667 170.666667 0 0 0 0-341.333334z m597.333333-85.333333a256 256 0 1 0 0 512 256 256 0 0 0 0-512z m0 682.666667a170.666667 170.666667 0 1 0 0 341.333333 170.666667 170.666667 0 0 0 0-341.333333z"  horiz-adv-x="1024" />

    
    <glyph glyph-name="d-bottom" unicode="&#58968;" d="M1103.818507 896c46.867104 0 84.900299-38.040836 84.900299-84.90794v-849.087045c0-46.874746-38.033194-84.90794-84.900299-84.90794H84.900299C38.040836-122.90292499999998 0-84.869731 0-38.00262699999996V811.099701C0 857.959164 38.040836 896 84.90794 896h1018.910567z m-127.365731-806.636896h-764.179104a42.473075 42.473075 0 0 1-42.457791-42.450149 42.473075 42.473075 0 0 1 42.457791-42.457791h764.179104a42.473075 42.473075 0 0 1 42.450149 42.457791 42.473075 42.473075 0 0 1-42.450149 42.450149zM679.271164 259.18662700000004H212.273672a42.473075 42.473075 0 0 1-42.457791-42.457791 42.473075 42.473075 0 0 1 42.457791-42.457791h466.997492a42.473075 42.473075 0 0 1 42.457791 42.457791 42.473075 42.473075 0 0 1-42.457791 42.457791z m254.723821 0h-84.900298a42.473075 42.473075 0 0 1-42.457791-42.457791 42.473075 42.473075 0 0 1 42.450149-42.457791h84.90794a42.473075 42.473075 0 0 1 42.457791 42.457791 42.473075 42.473075 0 0 1-42.457791 42.457791z"  horiz-adv-x="1192" />

    
    <glyph glyph-name="d-scroll" unicode="&#58969;" d="M1104.185313-122.90292499999998H84.533493C37.849791-122.90292499999998 0-84.82388100000003 0-37.788656999999944V810.87809C0 857.890388 38.201313 896 84.533493 896h1019.65182c46.691343 0 84.541134-38.079045 84.541135-85.12191v-848.666747c0-47.004657-38.208955-85.114269-84.541135-85.114268z m-127.732537 382.089552H382.089552a42.488358 42.488358 0 0 1-42.457791-42.457791A42.473075 42.473075 0 0 1 382.089552 174.278687h594.363224a42.465433 42.465433 0 0 1 42.450149 42.450149 42.473075 42.473075 0 0 1-42.450149 42.457791z m42.450149 127.358089a42.473075 42.473075 0 0 1-42.450149 42.457791H764.179104a42.480716 42.480716 0 0 1-42.457791-42.457791A42.473075 42.473075 0 0 1 764.179104 344.094567h212.273672a42.465433 42.465433 0 0 1 42.450149 42.450149z m-424.539701 42.457791H509.455284a42.480716 42.480716 0 0 1-42.457791-42.457791 42.473075 42.473075 0 0 1 42.457791-42.450149h84.90794a42.465433 42.465433 0 0 1 42.450149 42.450149 42.473075 42.473075 0 0 1-42.450149 42.457791z m424.539701 127.365732a42.465433 42.465433 0 0 1-42.450149 42.450149h-764.179104a42.473075 42.473075 0 0 1-42.457791-42.450149A42.480716 42.480716 0 0 1 212.273672 513.910448h764.179104a42.473075 42.473075 0 0 1 42.450149 42.457791z"  horiz-adv-x="1192" />

    
    <glyph glyph-name="d-top" unicode="&#58970;" d="M1103.810866 896c46.867104 0 84.915582-38.048478 84.915582-84.90794v-849.087045c0-46.867104-38.048478-84.90794-84.915582-84.90794H84.90794C38.048478-122.90292499999998 0-84.86208999999997 0-37.99498500000004V811.09206C0 857.951522 38.048478 896 84.90794 896h1018.902926zM679.271164 598.818388H212.273672a42.473075 42.473075 0 0 1-42.457791-42.450149A42.480716 42.480716 0 0 1 212.273672 513.910448h466.997492a42.473075 42.473075 0 0 1 42.450149 42.457791 42.465433 42.465433 0 0 1-42.450149 42.450149z m254.723821 0h-84.90794a42.465433 42.465433 0 0 1-42.450149-42.450149A42.473075 42.473075 0 0 1 849.087045 513.910448h84.90794a42.480716 42.480716 0 0 1 42.457791 42.457791 42.473075 42.473075 0 0 1-42.457791 42.450149z m84.90794 127.365731a42.465433 42.465433 0 0 1-42.450149 42.45015h-764.179104a42.473075 42.473075 0 0 1-42.457791-42.45015 42.488358 42.488358 0 0 1 42.457791-42.457791h764.179104a42.473075 42.473075 0 0 1 42.450149 42.457791z"  horiz-adv-x="1192" />

    
    <glyph glyph-name="thumb" unicode="&#59504;" d="M582.770392 818.654347c17.411572-8.928356 32.592335-24.556303 45.98538-44.645871 21.434193-33.489775 34.826215-81.709035 37.506257-136.179678 2.234903-43.75457-2.680042-89.297881-13.8433-129.034947h166.096064c39.290904 0 72.77454-9.825796 97.781099-27.681484 25.893766-18.753128 40.628367-45.989473 41.074528-75.906883v-0.891301c0-23.216794-8.928356-50.900324-22.3214-69.201151 14.730507-16.970527 22.3214-39.294997 22.3214-66.081087 0-32.150266-22.3214-62.061536-44.646894-78.134622 5.802152-12.501744 7.590893-27.235322 7.590893-37.061118 0-36.165724-21.434193-64.738508-59.381495-80.365433 3.572366-8.482194 4.909828-17.416689 4.909828-28.578924 0-34.374936-13.8433-62.058466-40.628366-80.365432-25.897859-18.307989-62.954884-27.235322-109.389495-27.235322h-265.214626c-29.470225 0-62.061536 6.25343-86.616817 16.073086-9.825796 4.017504-18.755175 8.482194-25.002465 12.053536-1.342579 0.893347-3.573389 1.343602-4.915968 2.23695-1.337463-0.893347-2.229786-2.23695-3.572365-2.682088-2.229786-1.339509-4.017504-3.571342-6.247291-4.908805-15.180763-11.164282-32.146173-21.435216-52.24188-22.326517h-71.438101c-30.807687 0-55.808106 9.823749-73.223771 28.574831-16.07411 17.414642-25.894789 42.415061-27.682507 74.116095l-33.037474 349.153447v1.342579c0 32.592335 9.824773 62.06256 27.682507 83.937798 18.753128 22.325494 45.543311 34.380053 74.562258 34.380053h126.801067c17.415666 0 45.98845 5.35599 83.050591 32.591312 25.892743 19.645452 41.965829 39.290904 45.538195 45.543311 12.055582 28.574831 23.217818 59.827657 23.217817 134.837099 0 8.933472 0 37.061118 12.055583 61.617421 9.824773 21.43317 32.14515 46.880774 78.134623 46.880774 15.625901-0.895394 30.360502-4.912898 45.096125-12.057629z m-447.37866-773.312244s0-0.899487 0 0c2.229786-23.663979 7.585776-41.080668 18.748011-52.242903 10.271958-11.164282 25.898882-16.964387 46.881797-16.964387h70.54373c11.163258 0.889254 22.325494 7.588846 32.150267 15.179739 2.229786 1.339509 3.567249 2.673902 5.357013 4.017504 7.144731 5.358037 15.180763 12.055582 25.892742 12.055583 5.360083 0 9.825796-2.234903 20.988032-7.590893 6.247291-3.571342 14.734601-7.142684 23.662956-11.162236 16.07411-7.144731 44.646894-13.393045 71.883239-13.393044h265.659764c39.737066 0 69.653453 7.144731 89.298905 20.09059 16.96541 12.055582 25.001442 27.68353 25.001442 50.010047 0 12.053536-2.229786 18.30185-9.82068 28.572785-1.342579 2.228763-2.234903 4.019551-2.681064 6.24729-2.234903 9.825796 3.572366 19.646475 13.393044 21.43317 16.07718 4.017504 53.579343 16.966434 53.579343 52.23881 0 11.162235-4.909828 25.005535-8.482193 28.578924-3.572366 2.673902-6.252407 6.247291-7.144731 10.264795-2.681065 9.825796 3.572366 19.644429 13.397138 22.326517 9.820679 2.680042 38.839626 27.235322 38.839625 53.577296 0 23.666026-7.58987 40.628367-21.429076 50.003908-2.234903 1.343602-4.018527 3.573389-5.806245 6.25343-4.910851 8.482194-2.229786 19.644429 7.143707 25.001442 6.252407 4.017504 20.988031 29.916387 20.988031 54.471667-0.896417 18.753128-9.825796 34.826215-26.344021 46.880773-18.753128 13.398161-45.989473 20.988031-76.79716 20.988032h-193.327293c-2.234903 0-4.018527 0.892324-6.252407 1.338485-9.820679 3.572366-13.838184 13.838184-10.265819 23.216795 15.180763 41.074529 21.429077 90.190205 19.645452 138.855626-2.681065 48.223353-13.8433 90.189182-32.146173 118.76913-20.095707 32.146173-43.759687 39.290904-59.832773 39.290904-23.217818 0-53.57525-7.58987-53.575249-70.995009 0-82.154174-12.505838-119.210175-25.897859-150.018885 0-0.891301-0.892324-0.891301-0.892324-1.337462-7.144731-13.397138-28.573808-37.506256-56.70657-58.044033-24.110141-17.410549-62.507698-39.737066-104.473527-39.737066H169.766668c-18.749035 0-34.826215-7.590893-46.880774-21.433169-12.499698-14.731531-19.645452-35.718539-19.645452-59.382518l32.15129-347.361637z m0 0M347.472153 484.682686v-494.70969c0-10.266841-8.482194-18.749035-18.753128-18.749035s-18.753128 8.482194-18.753128 18.749035V484.682686c0 10.266841 8.482194 18.749035 18.753128 18.749035 10.270935 0.001023 18.753128-8.48117 18.753128-18.749035z m0 0"  horiz-adv-x="1024" />

    
    <glyph glyph-name="author" unicode="&#58936;" d="M637.248 534.592c0 13.44 10.752 24.32 24.064 24.32s24.128-10.88 24.128-24.32V486.4c0-13.44-10.816-24.32-24.128-24.32a24.192 24.192 0 0 0-24.064 24.32v48.192zM338.56 534.592c0 13.44 10.816 24.32 24.128 24.32s24.064-10.88 24.064-24.32V486.4c0-13.44-10.752-24.32-24.064-24.32a24.192 24.192 0 0 0-24.128 24.32v48.192zM408.96 385.024c75.776-44.672 149.568-44.672 217.344 0.768a24.192 24.192 0 0 1 6.656 33.408 23.744 23.744 0 0 1-33.152 6.72c-52.032-34.944-106.24-34.944-166.784 0.704a23.808 23.808 0 0 1-32.64-8.64 24.192 24.192 0 0 1 8.512-32.96zM700.16 200.576a24 24 0 0 0-33.024 8.32 24.384 24.384 0 0 0 8.192 33.28c88.832 53.888 141.12 150.848 141.12 262.272 0 169.6-136.32 307.008-304.448 307.008S207.552 674.048 207.552 504.448c0-107.584 55.488-206.528 146.24-262.336 11.392-7.04 14.976-21.888 8.064-33.344a24 24 0 0 0-33.152-8.128A355.968 355.968 0 0 0 159.36 504.448C159.36 700.864 317.248 860.032 512 860.032c194.752 0 352.64-159.168 352.64-355.584 0-128.32-61.056-241.152-164.48-303.872zM670.144 256a24.064 24.064 0 0 1-31.232-13.696 24.32 24.32 0 0 1 13.568-31.488c124.8-49.472 201.152-149.12 230.592-301.44a24.128 24.128 0 1 1 47.36 9.28c-32.64 168.448-119.872 281.728-260.288 337.344zM360.32 256a24.064 24.064 0 0 0 31.232-13.696 24.32 24.32 0 0 0-13.568-31.488c-124.8-49.472-201.152-149.12-230.592-301.44a24.128 24.128 0 1 0-47.36 9.28c32.64 168.448 119.872 281.728 260.288 337.344z"  horiz-adv-x="1024" />

    
    <glyph glyph-name="keji" unicode="&#58971;" d="M824.6674652099609 201.20050871372223c-18.70382130146027-32.60332345962525-57.23324418067932-49.26418662071228-110.44937074184419-49.26418662071228-21.016180515289307 0-44.52504515647888 2.7852594852447505-69.80746686458588 7.995128631591797-29.101833701133735-93.3177798986435-75.7371872663498-146.24060690402985-130.54727017879486-146.24060690402985-54.74056005477905 0-101.37808620929717 52.92282700538637-130.47702312469482 146.24060690402985-25.979098677635186-5.501720309257508-49.8478889465332-8.08348059654236-71.13347053527832-8.08348059654236-52.65415012836456 0-90.21821916103363 16.39218628406525-109.12409126758574 49.35398697853089-26.406374573707584 46.07482552528381-5.3221195936203 110.87664663791658 57.457745075225844 180.5276870727539-62.78058886528015 69.69521641731262-83.86556804180145 134.47313904762268-57.45846927165985 180.55955171585083 26.090624928474426 45.44549882411957 90.95907211303711 59.8164528608322 180.25756180286407 41.17925763130188C412.48527121543884 696.877482175827 459.12207317352295 749.7322347164154 513.86408162117 749.7322347164154c54.810082912445075 0 101.44543647766115-52.8554767370224 130.54654598236084-146.26378118991855 28.20020914077758 6.007209420204163 53.75275611877442 8.667907118797302 76.3860672712326 8.173280954360962 49.91451501846314-1.0558784008026123 85.6601268053055-17.591455578804016 103.87077033519743-49.35326278209686 26.40492618083953-46.08641266822815 5.321395397186279-110.86505949497221-57.45919346809386-180.56027591228485 62.78058886528015-69.65031623840333 83.86411964893342-134.45213735103607 57.45919346809386-180.5276870727539z m-383.55398476123804 8.307981491088867c22.634759545326233-92.35170185565948 56.62781596183777-126.77348256111145 72.7498769760132-126.77348256111145 14.234805107116696 0 42.23513603210449 26.585251092910767 64.14932012557983 95.69748938083649-25.685799121856693 8.803331851959229-52.068999409675605 19.58009898662567-78.94682586193086 32.33392238616944-21.914184093475345 10.463190078735352-43.49161684513092 21.780931949615475-64.01461958885193 33.79245400428771-0.35992562770843506 0.20132660865783691-0.6966769695281982 0.4272758960723877-0.9885281324386597 0.6300508975982666 2.1776586771011353-12.080320715904236 4.26768958568573-24.228715896606445 7.05077648162842-35.68043410778046z m-178.10235321521762 25.9552001953125c6.510525941848755-11.269944906234741 40.079203248023994-21.554982662200928 104.31977212429047-8.441957831382751-5.164968967437743 27.30365395545959-9.497836232185364 55.37205934524535-11.811643838882445 84.96489822864531-1.5932321548461914 20.813405513763424-2.357259392738342 42.39301085472107-2.514410018920898 63.903093338012695-7.117402553558348-6.242573261260985-14.032754302024841-12.573498487472532-20.522278547286987-18.860971927642826-65.07122218608856-63.31939101219177-77.14937031269075-108.13556313514711-69.47143971920012-121.56433761119843z m135.23861467838287 293.5153663158417c-84.53834652900696 23.812302947044373-127.82936096191406 12.014418840408325-135.30668914318085-1.0327041149139404-6.62350058555603-11.587142944335938 1.7525553703308105-47.15170562267303 47.063353657722466-98.03157448768617 18.3670699596405 15.985912084579471 38.32809627056122 31.74877166748047 59.973603487014756 47.13070392608642 20.792403817176815 14.660632610321045 42.033809423446655 28.334909677505493 63.11806440353395 40.707805752754204-11.811643838882445 4.1764408349990845-23.531314730644226 8.038580417633057-34.84833240509033 11.22576892375946z m188.430842757225 25.00288188457489c-22.63331115245819 92.3524260520935-56.62781596183777 126.7742067575455-72.81722724437714 126.7742067575455-14.167454838752747 0-42.16706156730652-26.59756243228912-64.08196985721587-95.77642679214479 25.68652331829071-8.801883459091187 52.06972360610962-19.47943568229675 78.94610166549683-32.333198189735405a864.1922950744629 864.1922950744629 0 0 0 64.01534378528595-33.725103735923774c0.35920143127441406-0.2027750015258789 0.7184028625488281-0.40482580661773687 0.9892523288726807-0.6300508975982666-2.156656980514527 12.080320715904236-4.266241192817688 24.238854646682736-7.051500678062441 35.69057285785675z m17.379266023635864-123.93390834331512c-15.291407704353329 10.328489542007448-30.649441480636597 20.254325866699215-46.00675106048584 29.19090986251831-14.236977696418762 8.307257294654846-29.122835397720344 16.12133681774139-44.19046640396119 23.731917142868046-15.02055823802948-7.610580325126646-29.886138439178467-15.4246598482132-44.12239193916321-23.731917142868046-15.358033776283268-8.936583995819092-30.716067552566535-18.862420320510864-46.00675106048584-29.19090986251831-0.9204536676406858-15.985912084579471-1.8858075141906743-31.973996758461006-1.8858075141906743-48.31911027431488 0-16.32338762283325 0.9653538465499878-32.378098368644714 1.8858075141906743-48.366907238960266 15.290683507919315-10.26041507720947 30.64871728420257-20.251429080963135 46.00675106048584-29.098212718963623 14.235529303550724-8.39778184890747 29.101833701133735-16.21113717556 44.12239193916321-23.757264018058777 15.067631006240845 7.546126842498779 29.953488707542412 15.36020636558533 44.19046640396119 23.666739463806152 15.35730957984924 8.936583995819092 30.715343356132507 18.928322196006775 46.00675106048584 29.188737273216248 0.8972793817520144 15.988808870315552 1.8191814422607422 32.043519616127014 1.8191814422607422 48.366907238960266 0 16.345113515853882-0.9219020605087278 32.333198189735405-1.8191814422607422 48.31911027431488z m-9.362411499023438-184.29857790470123c11.810919642448425-4.1764408349990845 23.463964462280273-8.038580417633057 34.84688401222229-11.227217316627502 84.47172045707701-23.823165893554688 127.7605623006821-11.94489598274231 135.3052407503128 0.9414553642272949 6.624224781990052 11.677667498588562-1.8177330493927002 47.19877839088441-47.06190526485443 98.12427163124084-18.366345763206482-15.987360477447506-38.39689493179322-31.79512023925782-59.97505187988281-47.15315401554108-20.7916796207428-14.72943127155304-42.03236103057861-28.335633873939514-63.11516761779785-40.68535566329956zM764.7836620807648 527.9919769763947c-6.511974334716798 11.26125454902649-40.14727771282195 21.589019894599915-104.32049632072449 8.443406224250793 5.164244771003724-27.28192806243896 9.49638783931732-55.41551113128662 11.742845177650452-84.94172394275665 1.6613066196441655-20.81412971019745 2.449232339859009-42.324212193489075 2.581760287284851-63.949441909790025a589.432892203331 589.432892203331 0 0 1 20.52372694015503 18.928322196006775c65.07122218608856 63.31939101219177 77.1522670984268 108.13845992088316 69.47216391563416 121.52016162872314z m-250.91958045959478-192.2480821609497c-25.350496172904972 0-46.00819945335388 20.59035301208496-46.00819945335388 45.98574936389923 0 25.41784644126892 20.657703280448914 46.02992534637452 46.00819945335388 46.02992534637452 25.416398048400875 0 46.00819945335388-20.61207890510559 46.00819945335388-46.02992534637452-0.000724196434020996-25.39539635181427-20.592525601387024-45.98574936389923-46.00819945335388-45.98574936389923z"  horiz-adv-x="1024" />

    
    <glyph glyph-name="quanxian1" unicode="&#58911;" d="M640 556.8h160v-96H640zM640 377.6h160v-96H640zM883.2 678.4v-518.4H140.8V678.4h742.4m0 96H140.8c-51.2 0-96-44.8-96-96v-518.4c0-51.2 44.8-96 96-96h736c51.2 0 96 44.8 96 96V678.4c6.4 51.2-38.4 96-89.6 96zM377.6 505.6c44.8 0 83.2-38.4 83.2-83.2s-38.4-89.6-83.2-89.6-83.2 38.4-83.2 83.2 38.4 89.6 83.2 89.6m0 96c-102.4 0-179.2-83.2-179.2-179.2s83.2-179.2 179.2-179.2S556.8 320 556.8 416 480 601.6 377.6 601.6z"  horiz-adv-x="1024" />

    
    <glyph glyph-name="keji1" unicode="&#58972;" d="M553.237282 117.776065h-0.050203c-7.989452 0-16.091861 0.080683-24.079521 0.231292-139.472959 2.67869-270.492088 28.226649-368.938421 71.937345-104.558551 46.430623-161.438574 108.987174-160.149432 176.135509 1.25149 65.251378 57.604382 124.406674 158.688166 166.561075 94.734895 39.506192 220.970393 61.263823 355.444566 61.263823 7.971523 0 16.072139-0.077097 24.072349-0.225913 139.474752-2.673311 270.495674-28.22127 368.947386-71.942723 104.553172-46.430623 161.436781-108.980002 160.144053-176.124751-1.247904-65.262135-57.613346-124.412053-158.693545-166.566455-94.715172-39.507985-220.943499-61.269202-355.385398-61.269202M514.152437 548.935753c-128.673931 0-248.761352-20.527657-338.137075-57.801608-82.402881-34.365761-130.158506-80.258495-131.038851-125.919936-0.903654-47.198012 47.734109-96.106513 133.44501-134.165783 93.081781-41.33681 217.934903-65.514943 351.543075-68.075298 7.702578-0.152402 15.512734-0.224121 23.224276-0.22412h0.046617c128.647036 0 248.712942 20.527657 338.086871 57.796228 82.392124 34.363968 130.153127 80.260288 131.029887 125.925316 0.905447 47.205184-47.732316 96.111892-133.441425 134.162197-93.090746 41.345774-217.938489 65.518529-351.544867 68.080676a1224.354881 1224.354881 0 0 1-23.213518 0.222328M756.941422-109.51453c-59.176812 0-131.026301 32.339711-207.793893 93.513886-75.842422 60.440852-149.829126 143.673876-213.940178 240.68763-76.909236 116.372397-130.194365 238.778122-150.026351 344.649123-21.076304 112.447597-1.830617 194.769795 54.203127 231.801695 20.14217 13.305594 44.037015 20.061486 71.005002 20.061487 59.176812 0 131.035266-32.332539 207.7921-93.513886 75.847801-60.446231 149.832711-143.675669 213.94197-240.693009 76.903858-116.37419 130.181814-238.765572 150.026352-344.641952 21.070925-112.456562 1.81986-194.771588-54.208506-231.803488-20.143962-13.310973-44.02805-20.061486-70.999623-20.061486M310.389129 776.229934c-18.001369 0-33.548169-4.245741-46.208296-12.613509-39.389649-26.03206-52.073084-93.829448-34.801451-186.000403 18.758-100.115583 69.667451-216.649348 143.349349-328.130536 61.543526-93.13557 132.243724-172.771906 204.446428-230.317121 67.729255-53.982592 131.578534-83.713539 179.766263-83.713538 17.999576 0 33.549962 4.247534 46.204709 12.606337 39.387857 26.033853 52.080256 93.831241 34.797866 186.007574-18.754415 100.110204-69.662072 216.642176-143.338592 328.126951-61.548905 93.13557-132.243724 172.777285-204.451806 230.318913C422.417172 746.495401 358.578651 776.229934 310.389129 776.229934M336.245478-126.571007c-21.815006 0-41.914144 4.884037-59.874275 14.774032-58.846906 32.379156-84.690705 112.868944-72.783624 226.659472 11.211411 107.126077 54.414697 233.438672 121.658059 355.65255 73.393232 133.382257 167.843046 246.711993 259.133654 310.930622 10.15894 7.146759 24.188892 4.706533 31.333858-5.448821 7.144966-10.162526 4.706533-24.185306-5.455993-31.332064-85.88482-60.417544-175.403979-168.24467-245.60394-295.83565-64.417649-117.082412-105.734736-237.347336-116.341917-338.651655-9.757316-93.266457 8.369561-159.819527 49.733265-182.574046 41.363704-22.758106 107.278479-2.454569 180.845628 55.712803 79.89273 63.171538 159.371286 162.448014 223.785348 279.528632 70.199961 127.587394 113.367388 260.914069 118.428929 365.804318 0.604229 12.403732 11.137899 21.978166 23.545217 21.377523 12.401939-0.59885 21.976373-11.139692 21.381108-23.543424-5.380688-111.497325-50.558029-251.940279-123.949468-385.31895C674.841552 118.946871 591.273243 14.845527 506.779764-51.963938c-62.344981-49.293988-120.883498-74.607069-170.534286-74.607069M655.305404 782.408491c0-29.60006 12.181405-59.013652 33.110686-79.950105 20.929281-20.929281 50.348252-33.110686 79.951898-33.110686 29.601853 0 59.013652 12.181405 79.944726 33.110686 20.93466 20.936453 33.112479 50.351838 33.112479 79.950105 0 29.601853-12.177819 59.020824-33.112479 79.950106C827.38164 883.282499 797.969841 895.471075 768.367988 895.471075c-29.603646 0-59.022617-12.188577-79.951898-33.112478-20.929281-20.929281-33.110686-50.348252-33.110686-79.950106"  horiz-adv-x="1068" />

    
    <glyph glyph-name="comment" unicode="&#58881;" d="M978.7422368 708.6146912l-44.58777067-44.2854176L785.66973547 811.9003968l44.58777066 44.22320106c16.3630752 16.30194987 42.1569408 17.15661547 57.48524907 1.88615787l92.8256064-92.2176256C995.95779413 750.5249472 995.105312 724.9133664 978.7422368 708.6146912L978.7422368 708.6146912zM584.93144213 317.23254293L436.44780267 464.8058496l326.65461973 324.58617706 148.48582293-147.5722144L584.93144213 317.23254293 584.93144213 317.23254293zM564.25028693 296.67254826l-207.8539552-59.00247146 59.37031574 206.57796053L564.25028693 296.67254826 564.25028693 296.67254826zM218.18832427 745.47336106c-51.34104533 0-92.88673173-41.5456864-92.88673174-92.8256064l0-557.19704746c0-51.2668224 41.55987627-92.8277888 92.8277888-92.8277888l557.31820694 0c51.2679136 0 92.82997227 41.56096747 92.82997226 92.82997226L868.27756053 466.9354176l92.88454827 92.82997226 0-495.2758336c0-85.46653333-69.28465173-154.75009387-154.75009387-154.75009386L187.16604693-90.26053760000002c-85.46653333 0-154.75009387 69.28465173-154.75009386 154.75009386L32.41595307 683.6110912c0 85.46653333 69.28465173 154.75009387 154.75009386 154.75009386l495.39808534 0-92.88891414-92.88891413L218.18832427 745.47226986 218.18832427 745.47336106z"  horiz-adv-x="1024" />

    
    <glyph glyph-name="jinzhidanmu" unicode="&#58917;" d="M599.86944 457.31328h36.0704v-28.04224h-36.0704zM501.72928 381.19936h38.06208v-30.0544h-38.06208zM501.72928 457.31328h38.06208v-28.04224h-38.06208zM918.90176 332.99456c1.05984 11.62752 1.72544 23.36256 1.72544 35.26656 0 18.85184-1.67936 37.25824-4.08064 55.45984h53.44256V505.46688H897.28c-17.03424 49.29024-43.19744 94.05952-76.0576 133.12512h93.62432v81.7664h-185.15456c-66.06848 43.17184-144.8704 68.47488-229.6576 68.47488-232.27392 0-420.57728-188.27776-420.57728-420.57728 0-232.2944 188.29824-420.57216 420.57728-420.57216 48.73728 0 95.37024 8.5504 138.83904 23.8848 33.18272-18.49344 71.4752-29.04576 112.2816-29.04576a230.31808 230.31808 0 0 1 162.01728 66.44224l1.47456 1.4592c41.96352 41.58976 67.92192 99.6352 67.92192 163.49184-0.01024 61.70112-24.2432 117.7088-63.6672 159.0784z m-393.13408 260.54144c9.2928-14.72 18.66752-33.41312 28.04224-56.07936l-54.0928-20.03968c-10.69056 20.03968-20.73088 38.70208-30.02368 56.07936l56.07424 20.03968zM439.63904 511.40608h142.23872c7.97696 24.0384 14.65856 45.3888 19.97312 64.10752 4.03456 13.32224 6.69184 20.67968 8.05888 22.04672 12.0064-2.70848 35.34336-10.74176 70.09792-24.064 0-1.34144-2.01728-3.35872-6.02112-6.016a318.24896 318.24896 0 0 1-38.05696-56.07936h62.09536v-112.27136a230.58432 230.58432 0 0 1-62.09536-24.53504v6.59968h-36.0704v-30.0544h2.43712a234.97216 234.97216 0 0 1-13.5936-12.23168l-1.45408-1.47456a230.912 230.912 0 0 1-47.46752-68.864v30.4896H439.63904V511.40608zM417.5872 397.20448H345.47712v-48.0768h64.10752v-140.20096c0-26.74688-6.02112-44.09344-18.05312-52.10624-10.70592-9.344-38.05696-16.68096-82.1248-22.04672-4.00384 22.72256-11.3664 42.7776-22.00064 60.10368 48.02048-6.71232 68.73088 8.00256 62.04928 44.09856V295.0656H289.36704V451.29728h66.1248V505.38496h-84.1216v54.1184H417.5872v-162.29888z m8.02816-184.29952V265.0112h112.5632a229.65248 229.65248 0 0 1-15.29856-52.10624H425.61536z m325.50912-214.23104c-48.51712 0-92.35456 19.64544-123.83744 51.44576h-0.26112c-31.68768 31.47776-51.28704 75.47392-51.28704 123.8016a174.3872 174.3872 0 0 0 31.88736 100.75136l243.98336-244.15232a174.13632 174.13632 0 0 0-100.48512-31.8464z m148.29056 81.9968l-241.70496 241.5104a174.74048 174.74048 0 0 0 93.4144 26.9824c48.34816 0 92.032-19.58912 123.69408-51.38432h0.1024a174.1824 174.1824 0 0 0 51.44576-123.8528 174.09536 174.09536 0 0 0-26.95168-93.25568z"  horiz-adv-x="1024" />

    
    <glyph glyph-name="jinzhidanmu2" unicode="&#58887;" d="M599.86944 457.31328h36.0704v-28.04224h-36.0704zM501.72928 381.19936h38.06208v-30.0544h-38.06208zM501.72928 457.31328h38.06208v-28.04224h-38.06208zM918.90176 332.99456c1.05984 11.62752 1.72544 23.36256 1.72544 35.26656 0 18.85184-1.67936 37.25824-4.08064 55.45984h53.44256V505.46688H897.28c-17.03424 49.29024-43.19744 94.05952-76.0576 133.12512h93.62432v81.7664h-185.15456c-66.06848 43.17184-144.8704 68.47488-229.6576 68.47488-232.27392 0-420.57728-188.27776-420.57728-420.57728 0-232.2944 188.29824-420.57216 420.57728-420.57216 48.73728 0 95.37024 8.5504 138.83904 23.8848 33.18272-18.49344 71.4752-29.04576 112.2816-29.04576a230.31808 230.31808 0 0 1 162.01728 66.44224l1.47456 1.4592c41.96352 41.58976 67.92192 99.6352 67.92192 163.49184-0.01024 61.70112-24.2432 117.7088-63.6672 159.0784z m-393.13408 260.54144c9.2928-14.72 18.66752-33.41312 28.04224-56.07936l-54.0928-20.03968c-10.69056 20.03968-20.73088 38.70208-30.02368 56.07936l56.07424 20.03968zM439.63904 511.40608h142.23872c7.97696 24.0384 14.65856 45.3888 19.97312 64.10752 4.03456 13.32224 6.69184 20.67968 8.05888 22.04672 12.0064-2.70848 35.34336-10.74176 70.09792-24.064 0-1.34144-2.01728-3.35872-6.02112-6.016a318.24896 318.24896 0 0 1-38.05696-56.07936h62.09536v-112.27136a230.58432 230.58432 0 0 1-62.09536-24.53504v6.59968h-36.0704v-30.0544h2.43712a234.97216 234.97216 0 0 1-13.5936-12.23168l-1.45408-1.47456a230.912 230.912 0 0 1-47.46752-68.864v30.4896H439.63904V511.40608zM417.5872 397.20448H345.47712v-48.0768h64.10752v-140.20096c0-26.74688-6.02112-44.09344-18.05312-52.10624-10.70592-9.344-38.05696-16.68096-82.1248-22.04672-4.00384 22.72256-11.3664 42.7776-22.00064 60.10368 48.02048-6.71232 68.73088 8.00256 62.04928 44.09856V295.0656H289.36704V451.29728h66.1248V505.38496h-84.1216v54.1184H417.5872v-162.29888z m8.02816-184.29952V265.0112h112.5632a229.65248 229.65248 0 0 1-15.29856-52.10624H425.61536z m325.50912-214.23104c-48.51712 0-92.35456 19.64544-123.83744 51.44576h-0.26112c-31.68768 31.47776-51.28704 75.47392-51.28704 123.8016a174.3872 174.3872 0 0 0 31.88736 100.75136l243.98336-244.15232a174.13632 174.13632 0 0 0-100.48512-31.8464z m148.29056 81.9968l-241.70496 241.5104a174.74048 174.74048 0 0 0 93.4144 26.9824c48.34816 0 92.032-19.58912 123.69408-51.38432h0.1024a174.1824 174.1824 0 0 0 51.44576-123.8528 174.09536 174.09536 0 0 0-26.95168-93.25568z"  horiz-adv-x="1024" />

    
    <glyph glyph-name="yinliang" unicode="&#58938;" d="M781.65924949 485.14662796c-9.29919132 0-17.26357058-3.29253664-23.82392558-9.88749736-6.60979227-6.59001736-9.90727226-14.51979017-9.907273-23.89313776v-337.00052332c0-9.26952896 3.29748072-17.30312039 9.907273-23.89313775 6.56035428-6.59001736 14.52473426-9.78862283 23.82886893-9.78862284 9.30413542 0 17.24873976 3.19860547 23.81898149 9.78862284 6.62462309 6.59001736 9.89738482 14.62360879 9.89738555 23.89313775V451.36599284c0 9.3733476-3.27276173 17.30312039-9.89738555 23.89313776-6.57518582 6.59496073-14.51484608 9.88749737-23.82392484 9.88749736m0 67.35857706c27.91240552 0 51.73633108-9.88749737 71.49155091-29.55867346 19.74533237-19.77499545 29.62294301-43.66813321 29.62294228-71.47672009v-337.10434195c0-27.90746215-9.87760991-51.70172463-29.62294228-71.4767201-19.75521982-19.77499545-43.5791454-29.66249283-71.48660755-29.6624921-27.93218042 0-51.75116191 9.88749737-71.49649501 29.6624921-19.75521982 19.77499545-29.63283045 43.56925795-29.63282972 71.4767201V451.46981147c0 27.80858689 9.87760991 51.70172463 29.63282972 71.47672009 19.74533237 19.6761202 43.56925795 29.56361756 71.49155165 29.56361756m-269.66172118 134.8160294c-9.30907878 0-17.23390822-3.29253664-23.85358793-9.88749809-6.56035428-6.59001736-9.87760991-14.51979017-9.87760992-23.78931912v-539.28389179c0-9.26952896 3.31231155-17.30312039 9.87760992-23.89313775 6.62462309-6.59001736 14.54450917-9.78862283 23.85358793-9.78862284s17.23390822 3.19860547 23.8437005 9.78862284c6.56035428 6.59001736 9.87760991 14.62360879 9.8776099 23.89313775V653.64936131c0 9.26952896-3.31231155 17.19930175-9.8776099 23.78931911-6.60979227 6.59496073-14.53462171 9.88749737-23.8437005 9.8874981M242.34569459 282.86820285c-9.31896623 0-17.26357058-3.29748072-23.82886892-9.88749736-6.62462309-6.59496073-9.90232891-14.52473426-9.90232891-23.79426321v-134.81602868c0-9.27447305 3.27276173-17.30312039 9.89738482-23.89808183 6.57518582-6.59001736 14.51484608-9.78862283 23.83381301-9.78862284 9.29919132 0 17.24379567 3.19860547 23.82886896 9.78862284 6.60979227 6.59001736 9.89244146 14.62360879 9.89244144 23.89313775V249.19138637000003c0 9.26952896-3.28264918 17.20424585-9.89738481 23.79426321-6.58012991 6.59001736-14.52473426 9.88749737-23.82392559 9.88749737m0 67.45745233c27.91240552 0 51.73633108-9.88749737 71.48166347-29.66249281 19.75521982-19.77499545 29.63283045-43.56431458 29.63283046-71.4767201v-134.8160294c0-27.9173496-9.87760991-51.70666872-29.63283046-71.48166346-19.74533237-19.77499545-43.56925795-29.66249283-71.48166347-29.66249283-27.93218042 0-51.76105009 9.88749737-71.50143836 29.66249283C151.08903569 62.66374487999997 141.21142578 86.45800737000002 141.21142578 114.36546952000003V249.19138637000003c0 27.91240552 9.87760991 51.70666872 29.63283045 71.48166345 19.74533237 19.77499545 43.56925795 29.66249283 71.50143836 29.66249283M511.99752831 754.78857422c27.89263061 0 51.73633108-9.88749737 71.49155091-29.66249283 19.75521982-19.77499545 29.63283045-43.56925795 29.63283046-71.47672008v-539.28389179c0-27.90746215-9.87760991-51.70172463-29.63283046-71.4767201-19.75521982-19.77499545-43.6038644-29.66249283-71.49155091-29.6624921-27.90251806 0-51.74621854 9.88749737-71.50143908 29.6624921-19.74533237 19.77499545-29.62294301 43.56925795-29.62294228 71.4767201V653.64936131C410.87314695 681.55682346 420.75075686 705.35108666 440.49608923 725.12608139 460.25130977 744.90107685 484.09995362 754.78857422 511.99258423 754.78857422"  horiz-adv-x="1024" />

    
    <glyph glyph-name="volumeoff" unicode="&#58924;" d="M503.68 9.600000000000023c-14.72 0-29.44 3.84-42.24 12.16l-125.44 76.16c-15.36 8.96-19.84 28.8-10.88 44.16 8.96 15.36 28.8 19.84 44.16 10.88L494.72 76.79999999999995c8.32-5.12 15.36-1.92 17.92 0 2.56 1.28 8.96 6.4 8.96 15.36V648.3199999999999c0 9.6-6.4 14.08-8.96 15.36-2.56 1.28-10.24 4.48-17.92 0L305.92 549.12c-5.12-3.2-8.32-8.96-8.32-15.36v-357.12c0-17.92-14.08-32-32-32s-32 14.08-32 32V533.76c0 28.16 15.36 55.04 39.04 69.76l188.8 114.56c25.6 15.36 56.32 16 82.56 1.28s41.6-41.6 41.6-71.04v-557.44c0-30.08-15.36-56.32-41.6-71.04-12.8-7.04-26.24-10.24-40.32-10.24zM262.4 143.36H145.92c-39.04 0-71.04 32-71.04 71.04V517.76c0 39.04 32 71.04 71.04 71.04 17.92 0 32-14.08 32-32s-14.08-32-32-32c-3.84 0-7.04-3.2-7.04-7.04v-303.36c0-3.84 3.2-7.04 7.04-7.04H262.4c17.92 0 32-14.08 32-32s-14.08-32-32-32zM680.96 204.79999999999995c-8.32 0-16.64 3.2-22.4 9.6-12.8 12.8-12.8 32.64 0 45.44l248.96 248.96c12.8 12.8 32.64 12.8 45.44 0s12.8-32.64 0-45.44L704 214.39999999999998c-6.4-6.4-14.72-9.6-23.04-9.6zM929.92 204.79999999999995c-8.32 0-16.64 3.2-22.4 9.6l-60.16 60.16c-12.8 12.8-12.8 32.64 0 45.44s32.64 12.8 45.44 0l60.16-60.16c12.8-12.8 12.8-32.64 0-45.44-6.4-6.4-14.72-9.6-23.04-9.6zM805.76 328.96000000000004c-8.32 0-16.64 3.2-22.4 9.6l-124.8 124.8c-12.8 12.8-12.8 32.64 0 45.44s32.64 12.8 45.44 0L828.8 384c12.8-12.8 12.8-32.64 0-45.44-6.4-6.4-14.72-9.6-23.04-9.6z"  horiz-adv-x="1024" />

    
    <glyph glyph-name="volume" unicode="&#58925;" d="M512.64 14.080000000000041c-14.72 0-29.44 3.84-42.24 12.16L344.32 102.39999999999998c-15.36 8.96-19.84 28.8-10.88 44.16 8.96 15.36 28.8 19.84 44.16 10.88l125.44-76.16c8.32-5.12 15.36-1.92 17.92 0 2.56 1.28 8.96 6.4 8.96 15.36V652.8c0 9.6-6.4 14.08-8.96 15.36-2.56 1.28-10.24 4.48-17.92 0L314.88 553.6c-5.12-3.2-8.32-8.96-8.32-15.36v-357.12c0-17.92-14.08-32-32-32s-32 14.08-32 32V538.24c0 28.16 15.36 55.04 39.04 69.76l188.8 115.2c25.6 15.36 56.32 16 82.56 1.28s41.6-41.6 41.6-71.04V96c0-30.08-15.36-56.32-41.6-71.04-12.8-7.68-26.88-10.88-40.32-10.88zM271.36 147.84000000000003H154.24c-39.04 0-71.04 32-71.04 71.04V522.24c0 39.04 32 71.04 71.04 71.04 17.92 0 32-14.08 32-32s-14.08-32-32-32c-3.84 0-7.04-3.2-7.04-7.04v-303.36c0-3.84 3.2-7.04 7.04-7.04h116.48c17.92 0 32-14.08 32-32s-14.08-32-31.36-32zM833.28 69.75999999999999c-7.68 0-15.36 2.56-21.76 8.32-12.8 12.16-13.44 32-1.92 45.44 60.8 65.28 94.08 149.76 94.08 238.72 0 88.96-33.28 174.08-94.08 238.72-12.16 12.8-11.52 33.28 1.92 45.44 12.8 12.16 33.28 11.52 45.44-1.92 71.68-76.8 111.36-177.28 111.36-282.24s-39.68-205.44-111.36-282.24c-6.4-7.04-14.72-10.24-23.68-10.24zM714.88 187.51999999999998c-7.68 0-14.72 2.56-21.12 7.68-13.44 11.52-14.72 32-3.2 45.44 29.44 33.92 46.08 76.8 46.08 121.6s-16 87.68-46.08 121.6c-11.52 13.44-10.24 33.28 3.2 45.44 13.44 11.52 33.28 10.24 45.44-3.2 39.68-45.44 61.44-103.68 61.44-163.84 0-60.16-21.76-118.4-61.44-163.84-6.4-7.04-15.36-10.88-24.32-10.88z"  horiz-adv-x="1024" />

    


  </font>
</defs>
</svg>
